<svg width="14" height="14" viewBox="0 0 14 14" fill="none" xmlns="http://www.w3.org/2000/svg">
<path d="M0.459294 12.4799C0.166401 12.7728 0.166401 13.2477 0.459294 13.5406C0.752187 13.8335 1.22706 13.8335 1.51995 13.5406L0.459294 12.4799ZM13.7604 0.989438C13.7604 0.575225 13.4247 0.239439 13.0104 0.239438L6.26044 0.239439C5.84623 0.239439 5.51044 0.575225 5.51044 0.989439C5.51044 1.40365 5.84623 1.73944 6.26044 1.73944H12.2604V7.73944C12.2604 8.15365 12.5962 8.48944 13.0104 8.48944C13.4247 8.48944 13.7604 8.15365 13.7604 7.73944L13.7604 0.989438ZM1.51995 13.5406L13.5408 1.51977L12.4801 0.459109L0.459294 12.4799L1.51995 13.5406Z" fill="white"/>
</svg>
