<svg width="700" height="291" viewBox="0 0 700 291" fill="none" xmlns="http://www.w3.org/2000/svg">
<rect x="0.5" y="0.669434" width="699" height="289.514" fill="#FFFCCE" stroke="#333333"/>
<path d="M1.5 1.66943H139.579V144.926H1.5V1.66943Z" fill="#FFFCCE" stroke="#333333"/>
<path d="M1.5 1.66943H139.579V6.34734C139.579 82.7157 77.8052 144.656 1.5 144.926V1.66943Z" fill="#FF995F" stroke="#333333"/>
<path d="M1.5 1.66943H139.579V6.34734C139.579 82.7157 77.8052 144.656 1.5 144.926V1.66943Z" fill="#FF995F" stroke="#333333"/>
<rect x="1.5" y="146.467" width="138.079" height="143.257" fill="#FFFCCE" stroke="#333333"/>
<path d="M1.5 288.643L1.5 145.387C77.8052 145.656 139.579 207.597 139.579 283.965V288.643L1.5 288.643Z" fill="#FF995F" stroke="#333333"/>
<path d="M1.5 288.643L1.5 145.387C77.8052 145.656 139.579 207.597 139.579 283.965V288.643L1.5 288.643Z" fill="#FF995F" stroke="#333333"/>
<rect x="141.1" y="1.66931" width="138.079" height="143.257" fill="#FFFCCE" stroke="#333333"/>
<rect x="141.1" y="1.66931" width="138.079" height="143.257" fill="#FFFCCE" stroke="#333333"/>
<rect x="558.507" y="1.53418" width="143.257" height="138.079" transform="rotate(90 558.507 1.53418)" fill="#FFFCCE" stroke="#333333"/>
<rect x="697.979" y="1.66931" width="143.257" height="138.079" transform="rotate(90 697.979 1.66931)" fill="#FFFCCE" stroke="#333333"/>
<rect x="698.5" y="146.467" width="143.797" height="138.6" transform="rotate(90 698.5 146.467)" fill="#FFFCCE" stroke="#333333"/>
<path d="M698.5 1.66931V145.466C621.907 145.196 559.9 83.0227 559.9 6.36658V1.66931L698.5 1.66931Z" fill="#FF995F" stroke="#333333"/>
<path d="M698.5 290.264H559.9V285.567C559.9 208.91 621.907 146.737 698.5 146.467V290.264Z" fill="#FF995F" stroke="#333333"/>
<rect x="141.1" y="146.467" width="138.079" height="143.257" fill="#FFFCCE" stroke="#333333"/>
<rect x="141.1" y="146.467" width="138.079" height="143.257" fill="#FFFCCE" stroke="#333333"/>
<rect x="280.7" y="1.66931" width="138.079" height="143.257" fill="#FFFCCE" stroke="#333333"/>
<mask id="path-18-inside-1_11_124" fill="white">
<path fill-rule="evenodd" clip-rule="evenodd" d="M419.258 73.2978C380.862 73.3097 349.74 105.598 349.74 145.426C349.74 105.598 318.617 73.3097 280.221 73.2978C318.617 73.2859 349.74 40.9975 349.74 1.16931C349.74 40.9975 380.862 73.2859 419.258 73.2978Z"/>
</mask>
<path fill-rule="evenodd" clip-rule="evenodd" d="M419.258 73.2978C380.862 73.3097 349.74 105.598 349.74 145.426C349.74 105.598 318.617 73.3097 280.221 73.2978C318.617 73.2859 349.74 40.9975 349.74 1.16931C349.74 40.9975 380.862 73.2859 419.258 73.2978Z" fill="#FF995F"/>
<path d="M419.258 73.2978L419.258 74.2978V72.2978L419.258 73.2978ZM280.221 73.2978L280.221 72.2978L280.221 74.2978L280.221 73.2978ZM350.74 145.426C350.74 106.116 381.449 74.3095 419.258 74.2978L419.258 72.2978C380.276 72.3099 348.74 105.081 348.74 145.426H350.74ZM280.221 74.2978C318.031 74.3095 348.74 106.116 348.74 145.426H350.74C350.74 105.081 319.204 72.3099 280.222 72.2978L280.221 74.2978ZM348.74 1.16931C348.74 40.48 318.031 72.2861 280.221 72.2978L280.222 74.2978C319.204 74.2857 350.74 41.5149 350.74 1.16931H348.74ZM419.258 72.2978C381.449 72.2861 350.74 40.48 350.74 1.16931H348.74C348.74 41.5149 380.276 74.2857 419.258 74.2978L419.258 72.2978Z" fill="#333333" mask="url(#path-18-inside-1_11_124)"/>
<rect x="280.7" y="146.467" width="138.079" height="143.257" fill="#FFFCCE" stroke="#333333"/>
<mask id="path-21-inside-2_11_124" fill="white">
<path fill-rule="evenodd" clip-rule="evenodd" d="M419.258 217.014C380.881 217.026 349.77 249.283 349.74 289.084C349.709 249.283 318.598 217.026 280.221 217.014C318.617 217.003 349.74 184.714 349.74 144.886C349.74 184.714 380.862 217.003 419.258 217.014Z"/>
</mask>
<path fill-rule="evenodd" clip-rule="evenodd" d="M419.258 217.014C380.881 217.026 349.77 249.283 349.74 289.084C349.709 249.283 318.598 217.026 280.221 217.014C318.617 217.003 349.74 184.714 349.74 144.886C349.74 184.714 380.862 217.003 419.258 217.014Z" fill="#FF995F"/>
<path d="M349.74 289.084L348.74 289.085H350.74L349.74 289.084ZM419.258 217.014L419.258 218.014V216.014L419.258 217.014ZM280.221 217.014L280.221 216.014L280.221 218.014L280.221 217.014ZM350.74 289.085C350.77 249.801 381.467 218.026 419.258 218.014L419.258 216.014C380.295 216.027 348.771 248.765 348.74 289.083L350.74 289.085ZM280.221 218.014C318.012 218.026 348.709 249.801 348.74 289.085L350.74 289.083C350.709 248.765 319.184 216.027 280.222 216.014L280.221 218.014ZM348.74 144.886C348.74 184.197 318.031 216.003 280.221 216.014L280.222 218.014C319.204 218.002 350.74 185.232 350.74 144.886H348.74ZM419.258 216.014C381.449 216.003 350.74 184.197 350.74 144.886H348.74C348.74 185.232 380.276 218.002 419.258 218.014L419.258 216.014Z" fill="#333333" mask="url(#path-21-inside-2_11_124)"/>
<rect x="210.9" y="1.66931" width="68.5396" height="71.1285" fill="#FF995F" stroke="#333333"/>
<rect x="210.9" y="1.66931" width="68.5396" height="71.1285" fill="#FF995F" stroke="#333333"/>
<rect x="558.129" y="73.2366" width="71.1285" height="68.5396" transform="rotate(90 558.129 73.2366)" fill="#FF995F" stroke="#333333"/>
<rect x="558.379" y="146.467" width="143.257" height="138.079" transform="rotate(90 558.379 146.467)" fill="#FFFCCE" stroke="#333333"/>
<rect x="488.84" y="218.865" width="71.1285" height="68.5396" transform="rotate(90 488.84 218.865)" fill="#FF995F" stroke="#333333"/>
<rect x="210.955" y="288.856" width="71.1285" height="68.5396" transform="rotate(-90 210.955 288.856)" fill="#FF995F" stroke="#333333"/>
<rect x="210.955" y="288.856" width="71.1285" height="68.5396" transform="rotate(-90 210.955 288.856)" fill="#FF995F" stroke="#333333"/>
<rect x="142.142" y="72.9873" width="68.5396" height="71.1285" fill="#FF995F" stroke="#333333"/>
<rect x="142.142" y="72.9873" width="68.5396" height="71.1285" fill="#FF995F" stroke="#333333"/>
<rect x="489.11" y="2.2146" width="71.1285" height="68.5396" transform="rotate(90 489.11 2.2146)" fill="#FF995F" stroke="#333333"/>
<rect x="557.598" y="147.547" width="71.1285" height="68.5396" transform="rotate(90 557.598 147.547)" fill="#FF995F" stroke="#333333"/>
<rect x="142.087" y="217.652" width="71.1285" height="68.5396" transform="rotate(-90 142.087 217.652)" fill="#FF995F" stroke="#333333"/>
<rect x="142.087" y="217.652" width="71.1285" height="68.5396" transform="rotate(-90 142.087 217.652)" fill="#FF995F" stroke="#333333"/>
</svg>
