<svg width="440" height="185" viewBox="0 0 440 185" fill="none" xmlns="http://www.w3.org/2000/svg">
<circle cx="2.5" cy="2.5" r="2.5" fill="#D9D9D9" fill-opacity="0.7"/>
<circle cx="17.5" cy="2.5" r="2.5" fill="#D9D9D9" fill-opacity="0.7"/>
<circle cx="32.5" cy="2.5" r="2.5" fill="#D9D9D9" fill-opacity="0.7"/>
<circle cx="47.5" cy="2.5" r="2.5" fill="#D9D9D9" fill-opacity="0.7"/>
<circle cx="62.5" cy="2.5" r="2.5" fill="#D9D9D9" fill-opacity="0.7"/>
<circle cx="77.5" cy="2.5" r="2.5" fill="#D9D9D9" fill-opacity="0.7"/>
<circle cx="92.5" cy="2.5" r="2.5" fill="#D9D9D9" fill-opacity="0.7"/>
<circle cx="107.5" cy="2.5" r="2.5" fill="#D9D9D9" fill-opacity="0.7"/>
<circle cx="122.5" cy="2.5" r="2.5" fill="#D9D9D9" fill-opacity="0.7"/>
<circle cx="137.5" cy="2.5" r="2.5" fill="#D9D9D9" fill-opacity="0.7"/>
<circle cx="152.5" cy="2.5" r="2.5" fill="#D9D9D9" fill-opacity="0.7"/>
<circle cx="167.5" cy="2.5" r="2.5" fill="#D9D9D9" fill-opacity="0.7"/>
<circle cx="182.5" cy="2.5" r="2.5" fill="#D9D9D9" fill-opacity="0.7"/>
<circle cx="197.5" cy="2.5" r="2.5" fill="#D9D9D9" fill-opacity="0.7"/>
<circle cx="212.5" cy="2.5" r="2.5" fill="#D9D9D9" fill-opacity="0.7"/>
<circle cx="227.5" cy="2.5" r="2.5" fill="#D9D9D9" fill-opacity="0.7"/>
<circle cx="242.5" cy="2.5" r="2.5" fill="#D9D9D9" fill-opacity="0.7"/>
<circle cx="257.5" cy="2.5" r="2.5" fill="#D9D9D9" fill-opacity="0.7"/>
<circle cx="272.5" cy="2.5" r="2.5" fill="#D9D9D9" fill-opacity="0.7"/>
<circle cx="287.5" cy="2.5" r="2.5" fill="#D9D9D9" fill-opacity="0.7"/>
<circle cx="302.5" cy="2.5" r="2.5" fill="#D9D9D9" fill-opacity="0.7"/>
<circle cx="317.5" cy="2.5" r="2.5" fill="#D9D9D9" fill-opacity="0.7"/>
<circle cx="332.5" cy="2.5" r="2.5" fill="#D9D9D9" fill-opacity="0.7"/>
<circle cx="347.5" cy="2.5" r="2.5" fill="#D9D9D9" fill-opacity="0.7"/>
<circle cx="362.5" cy="2.5" r="2.5" fill="#D9D9D9" fill-opacity="0.7"/>
<circle cx="377.5" cy="2.5" r="2.5" fill="#D9D9D9" fill-opacity="0.7"/>
<circle cx="392.5" cy="2.5" r="2.5" fill="#D9D9D9" fill-opacity="0.7"/>
<circle cx="407.5" cy="2.5" r="2.5" fill="#D9D9D9" fill-opacity="0.7"/>
<circle cx="422.5" cy="2.5" r="2.5" fill="#D9D9D9" fill-opacity="0.7"/>
<circle cx="437.5" cy="2.5" r="2.5" fill="#D9D9D9" fill-opacity="0.7"/>
<circle cx="2.5" cy="17.5" r="2.5" fill="#D9D9D9" fill-opacity="0.7"/>
<circle cx="17.5" cy="17.5" r="2.5" fill="#D9D9D9" fill-opacity="0.7"/>
<circle cx="32.5" cy="17.5" r="2.5" fill="#D9D9D9" fill-opacity="0.7"/>
<circle cx="47.5" cy="17.5" r="2.5" fill="#D9D9D9" fill-opacity="0.7"/>
<circle cx="62.5" cy="17.5" r="2.5" fill="#D9D9D9" fill-opacity="0.7"/>
<circle cx="77.5" cy="17.5" r="2.5" fill="#D9D9D9" fill-opacity="0.7"/>
<circle cx="92.5" cy="17.5" r="2.5" fill="#D9D9D9" fill-opacity="0.7"/>
<circle cx="107.5" cy="17.5" r="2.5" fill="#D9D9D9" fill-opacity="0.7"/>
<circle cx="122.5" cy="17.5" r="2.5" fill="#D9D9D9" fill-opacity="0.7"/>
<circle cx="137.5" cy="17.5" r="2.5" fill="#D9D9D9" fill-opacity="0.7"/>
<circle cx="152.5" cy="17.5" r="2.5" fill="#D9D9D9" fill-opacity="0.7"/>
<circle cx="167.5" cy="17.5" r="2.5" fill="#D9D9D9" fill-opacity="0.7"/>
<circle cx="182.5" cy="17.5" r="2.5" fill="#D9D9D9" fill-opacity="0.7"/>
<circle cx="197.5" cy="17.5" r="2.5" fill="#D9D9D9" fill-opacity="0.7"/>
<circle cx="212.5" cy="17.5" r="2.5" fill="#D9D9D9" fill-opacity="0.7"/>
<circle cx="227.5" cy="17.5" r="2.5" fill="#D9D9D9" fill-opacity="0.7"/>
<circle cx="242.5" cy="17.5" r="2.5" fill="#D9D9D9" fill-opacity="0.7"/>
<circle cx="257.5" cy="17.5" r="2.5" fill="#D9D9D9" fill-opacity="0.7"/>
<circle cx="272.5" cy="17.5" r="2.5" fill="#D9D9D9" fill-opacity="0.7"/>
<circle cx="287.5" cy="17.5" r="2.5" fill="#D9D9D9" fill-opacity="0.7"/>
<circle cx="302.5" cy="17.5" r="2.5" fill="#D9D9D9" fill-opacity="0.7"/>
<circle cx="317.5" cy="17.5" r="2.5" fill="#D9D9D9" fill-opacity="0.7"/>
<circle cx="332.5" cy="17.5" r="2.5" fill="#D9D9D9" fill-opacity="0.7"/>
<circle cx="347.5" cy="17.5" r="2.5" fill="#D9D9D9" fill-opacity="0.7"/>
<circle cx="362.5" cy="17.5" r="2.5" fill="#D9D9D9" fill-opacity="0.7"/>
<circle cx="377.5" cy="17.5" r="2.5" fill="#D9D9D9" fill-opacity="0.7"/>
<circle cx="392.5" cy="17.5" r="2.5" fill="#D9D9D9" fill-opacity="0.7"/>
<circle cx="407.5" cy="17.5" r="2.5" fill="#D9D9D9" fill-opacity="0.7"/>
<circle cx="422.5" cy="17.5" r="2.5" fill="#D9D9D9" fill-opacity="0.7"/>
<circle cx="437.5" cy="17.5" r="2.5" fill="#D9D9D9" fill-opacity="0.7"/>
<circle cx="2.5" cy="32.5" r="2.5" fill="#D9D9D9" fill-opacity="0.7"/>
<circle cx="17.5" cy="32.5" r="2.5" fill="#D9D9D9" fill-opacity="0.7"/>
<circle cx="32.5" cy="32.5" r="2.5" fill="#D9D9D9" fill-opacity="0.7"/>
<circle cx="47.5" cy="32.5" r="2.5" fill="#D9D9D9" fill-opacity="0.7"/>
<circle cx="62.5" cy="32.5" r="2.5" fill="#D9D9D9" fill-opacity="0.7"/>
<circle cx="77.5" cy="32.5" r="2.5" fill="#D9D9D9" fill-opacity="0.7"/>
<circle cx="92.5" cy="32.5" r="2.5" fill="#D9D9D9" fill-opacity="0.7"/>
<circle cx="107.5" cy="32.5" r="2.5" fill="#D9D9D9" fill-opacity="0.7"/>
<circle cx="122.5" cy="32.5" r="2.5" fill="#D9D9D9" fill-opacity="0.7"/>
<circle cx="137.5" cy="32.5" r="2.5" fill="#D9D9D9" fill-opacity="0.7"/>
<circle cx="152.5" cy="32.5" r="2.5" fill="#D9D9D9" fill-opacity="0.7"/>
<circle cx="167.5" cy="32.5" r="2.5" fill="#D9D9D9" fill-opacity="0.7"/>
<circle cx="182.5" cy="32.5" r="2.5" fill="#D9D9D9" fill-opacity="0.7"/>
<circle cx="197.5" cy="32.5" r="2.5" fill="#D9D9D9" fill-opacity="0.7"/>
<circle cx="212.5" cy="32.5" r="2.5" fill="#D9D9D9" fill-opacity="0.7"/>
<circle cx="227.5" cy="32.5" r="2.5" fill="#D9D9D9" fill-opacity="0.7"/>
<circle cx="242.5" cy="32.5" r="2.5" fill="#D9D9D9" fill-opacity="0.7"/>
<circle cx="257.5" cy="32.5" r="2.5" fill="#D9D9D9" fill-opacity="0.7"/>
<circle cx="272.5" cy="32.5" r="2.5" fill="#D9D9D9" fill-opacity="0.7"/>
<circle cx="287.5" cy="32.5" r="2.5" fill="#D9D9D9" fill-opacity="0.7"/>
<circle cx="302.5" cy="32.5" r="2.5" fill="#D9D9D9" fill-opacity="0.7"/>
<circle cx="317.5" cy="32.5" r="2.5" fill="#D9D9D9" fill-opacity="0.7"/>
<circle cx="332.5" cy="32.5" r="2.5" fill="#D9D9D9" fill-opacity="0.7"/>
<circle cx="347.5" cy="32.5" r="2.5" fill="#D9D9D9" fill-opacity="0.7"/>
<circle cx="362.5" cy="32.5" r="2.5" fill="#D9D9D9" fill-opacity="0.7"/>
<circle cx="377.5" cy="32.5" r="2.5" fill="#D9D9D9" fill-opacity="0.7"/>
<circle cx="392.5" cy="32.5" r="2.5" fill="#D9D9D9" fill-opacity="0.7"/>
<circle cx="407.5" cy="32.5" r="2.5" fill="#D9D9D9" fill-opacity="0.7"/>
<circle cx="422.5" cy="32.5" r="2.5" fill="#D9D9D9" fill-opacity="0.7"/>
<circle cx="437.5" cy="32.5" r="2.5" fill="#D9D9D9" fill-opacity="0.7"/>
<circle cx="2.5" cy="47.5" r="2.5" fill="#D9D9D9" fill-opacity="0.7"/>
<circle cx="17.5" cy="47.5" r="2.5" fill="#D9D9D9" fill-opacity="0.7"/>
<circle cx="32.5" cy="47.5" r="2.5" fill="#D9D9D9" fill-opacity="0.7"/>
<circle cx="47.5" cy="47.5" r="2.5" fill="#D9D9D9" fill-opacity="0.7"/>
<circle cx="62.5" cy="47.5" r="2.5" fill="#D9D9D9" fill-opacity="0.7"/>
<circle cx="77.5" cy="47.5" r="2.5" fill="#D9D9D9" fill-opacity="0.7"/>
<circle cx="92.5" cy="47.5" r="2.5" fill="#D9D9D9" fill-opacity="0.7"/>
<circle cx="107.5" cy="47.5" r="2.5" fill="#D9D9D9" fill-opacity="0.7"/>
<circle cx="122.5" cy="47.5" r="2.5" fill="#D9D9D9" fill-opacity="0.7"/>
<circle cx="137.5" cy="47.5" r="2.5" fill="#D9D9D9" fill-opacity="0.7"/>
<circle cx="152.5" cy="47.5" r="2.5" fill="#D9D9D9" fill-opacity="0.7"/>
<circle cx="167.5" cy="47.5" r="2.5" fill="#D9D9D9" fill-opacity="0.7"/>
<circle cx="182.5" cy="47.5" r="2.5" fill="#D9D9D9" fill-opacity="0.7"/>
<circle cx="197.5" cy="47.5" r="2.5" fill="#D9D9D9" fill-opacity="0.7"/>
<circle cx="212.5" cy="47.5" r="2.5" fill="#D9D9D9" fill-opacity="0.7"/>
<circle cx="227.5" cy="47.5" r="2.5" fill="#D9D9D9" fill-opacity="0.7"/>
<circle cx="242.5" cy="47.5" r="2.5" fill="#D9D9D9" fill-opacity="0.7"/>
<circle cx="257.5" cy="47.5" r="2.5" fill="#D9D9D9" fill-opacity="0.7"/>
<circle cx="272.5" cy="47.5" r="2.5" fill="#D9D9D9" fill-opacity="0.7"/>
<circle cx="287.5" cy="47.5" r="2.5" fill="#D9D9D9" fill-opacity="0.7"/>
<circle cx="302.5" cy="47.5" r="2.5" fill="#D9D9D9" fill-opacity="0.7"/>
<circle cx="317.5" cy="47.5" r="2.5" fill="#D9D9D9" fill-opacity="0.7"/>
<circle cx="332.5" cy="47.5" r="2.5" fill="#D9D9D9" fill-opacity="0.7"/>
<circle cx="347.5" cy="47.5" r="2.5" fill="#D9D9D9" fill-opacity="0.7"/>
<circle cx="362.5" cy="47.5" r="2.5" fill="#D9D9D9" fill-opacity="0.7"/>
<circle cx="377.5" cy="47.5" r="2.5" fill="#D9D9D9" fill-opacity="0.7"/>
<circle cx="392.5" cy="47.5" r="2.5" fill="#D9D9D9" fill-opacity="0.7"/>
<circle cx="407.5" cy="47.5" r="2.5" fill="#D9D9D9" fill-opacity="0.7"/>
<circle cx="422.5" cy="47.5" r="2.5" fill="#D9D9D9" fill-opacity="0.7"/>
<circle cx="437.5" cy="47.5" r="2.5" fill="#D9D9D9" fill-opacity="0.7"/>
<circle cx="2.5" cy="62.5" r="2.5" fill="#D9D9D9" fill-opacity="0.7"/>
<circle cx="17.5" cy="62.5" r="2.5" fill="#D9D9D9" fill-opacity="0.7"/>
<circle cx="32.5" cy="62.5" r="2.5" fill="#D9D9D9" fill-opacity="0.7"/>
<circle cx="47.5" cy="62.5" r="2.5" fill="#D9D9D9" fill-opacity="0.7"/>
<circle cx="62.5" cy="62.5" r="2.5" fill="#D9D9D9" fill-opacity="0.7"/>
<circle cx="77.5" cy="62.5" r="2.5" fill="#D9D9D9" fill-opacity="0.7"/>
<circle cx="92.5" cy="62.5" r="2.5" fill="#D9D9D9" fill-opacity="0.7"/>
<circle cx="107.5" cy="62.5" r="2.5" fill="#D9D9D9" fill-opacity="0.7"/>
<circle cx="122.5" cy="62.5" r="2.5" fill="#D9D9D9" fill-opacity="0.7"/>
<circle cx="137.5" cy="62.5" r="2.5" fill="#D9D9D9" fill-opacity="0.7"/>
<circle cx="152.5" cy="62.5" r="2.5" fill="#D9D9D9" fill-opacity="0.7"/>
<circle cx="167.5" cy="62.5" r="2.5" fill="#D9D9D9" fill-opacity="0.7"/>
<circle cx="182.5" cy="62.5" r="2.5" fill="#D9D9D9" fill-opacity="0.7"/>
<circle cx="197.5" cy="62.5" r="2.5" fill="#D9D9D9" fill-opacity="0.7"/>
<circle cx="212.5" cy="62.5" r="2.5" fill="#D9D9D9" fill-opacity="0.7"/>
<circle cx="227.5" cy="62.5" r="2.5" fill="#D9D9D9" fill-opacity="0.7"/>
<circle cx="242.5" cy="62.5" r="2.5" fill="#D9D9D9" fill-opacity="0.7"/>
<circle cx="257.5" cy="62.5" r="2.5" fill="#D9D9D9" fill-opacity="0.7"/>
<circle cx="272.5" cy="62.5" r="2.5" fill="#D9D9D9" fill-opacity="0.7"/>
<circle cx="287.5" cy="62.5" r="2.5" fill="#D9D9D9" fill-opacity="0.7"/>
<circle cx="302.5" cy="62.5" r="2.5" fill="#D9D9D9" fill-opacity="0.7"/>
<circle cx="317.5" cy="62.5" r="2.5" fill="#D9D9D9" fill-opacity="0.7"/>
<circle cx="332.5" cy="62.5" r="2.5" fill="#D9D9D9" fill-opacity="0.7"/>
<circle cx="347.5" cy="62.5" r="2.5" fill="#D9D9D9" fill-opacity="0.7"/>
<circle cx="362.5" cy="62.5" r="2.5" fill="#D9D9D9" fill-opacity="0.7"/>
<circle cx="377.5" cy="62.5" r="2.5" fill="#D9D9D9" fill-opacity="0.7"/>
<circle cx="392.5" cy="62.5" r="2.5" fill="#D9D9D9" fill-opacity="0.7"/>
<circle cx="407.5" cy="62.5" r="2.5" fill="#D9D9D9" fill-opacity="0.7"/>
<circle cx="422.5" cy="62.5" r="2.5" fill="#D9D9D9" fill-opacity="0.7"/>
<circle cx="437.5" cy="62.5" r="2.5" fill="#D9D9D9" fill-opacity="0.7"/>
<circle cx="2.5" cy="77.5" r="2.5" fill="#D9D9D9" fill-opacity="0.7"/>
<circle cx="17.5" cy="77.5" r="2.5" fill="#D9D9D9" fill-opacity="0.7"/>
<circle cx="32.5" cy="77.5" r="2.5" fill="#D9D9D9" fill-opacity="0.7"/>
<circle cx="47.5" cy="77.5" r="2.5" fill="#D9D9D9" fill-opacity="0.7"/>
<circle cx="62.5" cy="77.5" r="2.5" fill="#D9D9D9" fill-opacity="0.7"/>
<circle cx="77.5" cy="77.5" r="2.5" fill="#D9D9D9" fill-opacity="0.7"/>
<circle cx="92.5" cy="77.5" r="2.5" fill="#D9D9D9" fill-opacity="0.7"/>
<circle cx="107.5" cy="77.5" r="2.5" fill="#D9D9D9" fill-opacity="0.7"/>
<circle cx="122.5" cy="77.5" r="2.5" fill="#D9D9D9" fill-opacity="0.7"/>
<circle cx="137.5" cy="77.5" r="2.5" fill="#D9D9D9" fill-opacity="0.7"/>
<circle cx="152.5" cy="77.5" r="2.5" fill="#D9D9D9" fill-opacity="0.7"/>
<circle cx="167.5" cy="77.5" r="2.5" fill="#D9D9D9" fill-opacity="0.7"/>
<circle cx="182.5" cy="77.5" r="2.5" fill="#D9D9D9" fill-opacity="0.7"/>
<circle cx="197.5" cy="77.5" r="2.5" fill="#D9D9D9" fill-opacity="0.7"/>
<circle cx="212.5" cy="77.5" r="2.5" fill="#D9D9D9" fill-opacity="0.7"/>
<circle cx="227.5" cy="77.5" r="2.5" fill="#D9D9D9" fill-opacity="0.7"/>
<circle cx="242.5" cy="77.5" r="2.5" fill="#D9D9D9" fill-opacity="0.7"/>
<circle cx="257.5" cy="77.5" r="2.5" fill="#D9D9D9" fill-opacity="0.7"/>
<circle cx="272.5" cy="77.5" r="2.5" fill="#D9D9D9" fill-opacity="0.7"/>
<circle cx="287.5" cy="77.5" r="2.5" fill="#D9D9D9" fill-opacity="0.7"/>
<circle cx="302.5" cy="77.5" r="2.5" fill="#D9D9D9" fill-opacity="0.7"/>
<circle cx="317.5" cy="77.5" r="2.5" fill="#D9D9D9" fill-opacity="0.7"/>
<circle cx="332.5" cy="77.5" r="2.5" fill="#D9D9D9" fill-opacity="0.7"/>
<circle cx="347.5" cy="77.5" r="2.5" fill="#D9D9D9" fill-opacity="0.7"/>
<circle cx="362.5" cy="77.5" r="2.5" fill="#D9D9D9" fill-opacity="0.7"/>
<circle cx="377.5" cy="77.5" r="2.5" fill="#D9D9D9" fill-opacity="0.7"/>
<circle cx="392.5" cy="77.5" r="2.5" fill="#D9D9D9" fill-opacity="0.7"/>
<circle cx="407.5" cy="77.5" r="2.5" fill="#D9D9D9" fill-opacity="0.7"/>
<circle cx="422.5" cy="77.5" r="2.5" fill="#D9D9D9" fill-opacity="0.7"/>
<circle cx="437.5" cy="77.5" r="2.5" fill="#D9D9D9" fill-opacity="0.7"/>
<circle cx="2.5" cy="92.5" r="2.5" fill="#D9D9D9" fill-opacity="0.7"/>
<circle cx="17.5" cy="92.5" r="2.5" fill="#D9D9D9" fill-opacity="0.7"/>
<circle cx="32.5" cy="92.5" r="2.5" fill="#D9D9D9" fill-opacity="0.7"/>
<circle cx="47.5" cy="92.5" r="2.5" fill="#D9D9D9" fill-opacity="0.7"/>
<circle cx="62.5" cy="92.5" r="2.5" fill="#D9D9D9" fill-opacity="0.7"/>
<circle cx="77.5" cy="92.5" r="2.5" fill="#D9D9D9" fill-opacity="0.7"/>
<circle cx="92.5" cy="92.5" r="2.5" fill="#D9D9D9" fill-opacity="0.7"/>
<circle cx="107.5" cy="92.5" r="2.5" fill="#D9D9D9" fill-opacity="0.7"/>
<circle cx="122.5" cy="92.5" r="2.5" fill="#D9D9D9" fill-opacity="0.7"/>
<circle cx="137.5" cy="92.5" r="2.5" fill="#D9D9D9" fill-opacity="0.7"/>
<circle cx="152.5" cy="92.5" r="2.5" fill="#D9D9D9" fill-opacity="0.7"/>
<circle cx="167.5" cy="92.5" r="2.5" fill="#D9D9D9" fill-opacity="0.7"/>
<circle cx="182.5" cy="92.5" r="2.5" fill="#D9D9D9" fill-opacity="0.7"/>
<circle cx="197.5" cy="92.5" r="2.5" fill="#D9D9D9" fill-opacity="0.7"/>
<circle cx="212.5" cy="92.5" r="2.5" fill="#D9D9D9" fill-opacity="0.7"/>
<circle cx="227.5" cy="92.5" r="2.5" fill="#D9D9D9" fill-opacity="0.7"/>
<circle cx="242.5" cy="92.5" r="2.5" fill="#D9D9D9" fill-opacity="0.7"/>
<circle cx="257.5" cy="92.5" r="2.5" fill="#D9D9D9" fill-opacity="0.7"/>
<circle cx="272.5" cy="92.5" r="2.5" fill="#D9D9D9" fill-opacity="0.7"/>
<circle cx="287.5" cy="92.5" r="2.5" fill="#D9D9D9" fill-opacity="0.7"/>
<circle cx="302.5" cy="92.5" r="2.5" fill="#D9D9D9" fill-opacity="0.7"/>
<circle cx="317.5" cy="92.5" r="2.5" fill="#D9D9D9" fill-opacity="0.7"/>
<circle cx="332.5" cy="92.5" r="2.5" fill="#D9D9D9" fill-opacity="0.7"/>
<circle cx="347.5" cy="92.5" r="2.5" fill="#D9D9D9" fill-opacity="0.7"/>
<circle cx="362.5" cy="92.5" r="2.5" fill="#D9D9D9" fill-opacity="0.7"/>
<circle cx="377.5" cy="92.5" r="2.5" fill="#D9D9D9" fill-opacity="0.7"/>
<circle cx="392.5" cy="92.5" r="2.5" fill="#D9D9D9" fill-opacity="0.7"/>
<circle cx="407.5" cy="92.5" r="2.5" fill="#D9D9D9" fill-opacity="0.7"/>
<circle cx="422.5" cy="92.5" r="2.5" fill="#D9D9D9" fill-opacity="0.7"/>
<circle cx="437.5" cy="92.5" r="2.5" fill="#D9D9D9" fill-opacity="0.7"/>
<circle cx="2.5" cy="107.5" r="2.5" fill="#D9D9D9" fill-opacity="0.7"/>
<circle cx="17.5" cy="107.5" r="2.5" fill="#D9D9D9" fill-opacity="0.7"/>
<circle cx="32.5" cy="107.5" r="2.5" fill="#D9D9D9" fill-opacity="0.7"/>
<circle cx="47.5" cy="107.5" r="2.5" fill="#D9D9D9" fill-opacity="0.7"/>
<circle cx="62.5" cy="107.5" r="2.5" fill="#D9D9D9" fill-opacity="0.7"/>
<circle cx="77.5" cy="107.5" r="2.5" fill="#D9D9D9" fill-opacity="0.7"/>
<circle cx="92.5" cy="107.5" r="2.5" fill="#D9D9D9" fill-opacity="0.7"/>
<circle cx="107.5" cy="107.5" r="2.5" fill="#D9D9D9" fill-opacity="0.7"/>
<circle cx="122.5" cy="107.5" r="2.5" fill="#D9D9D9" fill-opacity="0.7"/>
<circle cx="137.5" cy="107.5" r="2.5" fill="#D9D9D9" fill-opacity="0.7"/>
<circle cx="152.5" cy="107.5" r="2.5" fill="#D9D9D9" fill-opacity="0.7"/>
<circle cx="167.5" cy="107.5" r="2.5" fill="#D9D9D9" fill-opacity="0.7"/>
<circle cx="182.5" cy="107.5" r="2.5" fill="#D9D9D9" fill-opacity="0.7"/>
<circle cx="197.5" cy="107.5" r="2.5" fill="#D9D9D9" fill-opacity="0.7"/>
<circle cx="212.5" cy="107.5" r="2.5" fill="#D9D9D9" fill-opacity="0.7"/>
<circle cx="227.5" cy="107.5" r="2.5" fill="#D9D9D9" fill-opacity="0.7"/>
<circle cx="242.5" cy="107.5" r="2.5" fill="#D9D9D9" fill-opacity="0.7"/>
<circle cx="257.5" cy="107.5" r="2.5" fill="#D9D9D9" fill-opacity="0.7"/>
<circle cx="272.5" cy="107.5" r="2.5" fill="#D9D9D9" fill-opacity="0.7"/>
<circle cx="287.5" cy="107.5" r="2.5" fill="#D9D9D9" fill-opacity="0.7"/>
<circle cx="302.5" cy="107.5" r="2.5" fill="#D9D9D9" fill-opacity="0.7"/>
<circle cx="317.5" cy="107.5" r="2.5" fill="#D9D9D9" fill-opacity="0.7"/>
<circle cx="332.5" cy="107.5" r="2.5" fill="#D9D9D9" fill-opacity="0.7"/>
<circle cx="347.5" cy="107.5" r="2.5" fill="#D9D9D9" fill-opacity="0.7"/>
<circle cx="362.5" cy="107.5" r="2.5" fill="#D9D9D9" fill-opacity="0.7"/>
<circle cx="377.5" cy="107.5" r="2.5" fill="#D9D9D9" fill-opacity="0.7"/>
<circle cx="392.5" cy="107.5" r="2.5" fill="#D9D9D9" fill-opacity="0.7"/>
<circle cx="407.5" cy="107.5" r="2.5" fill="#D9D9D9" fill-opacity="0.7"/>
<circle cx="422.5" cy="107.5" r="2.5" fill="#D9D9D9" fill-opacity="0.7"/>
<circle cx="437.5" cy="107.5" r="2.5" fill="#D9D9D9" fill-opacity="0.7"/>
<circle cx="2.5" cy="122.5" r="2.5" fill="#D9D9D9" fill-opacity="0.7"/>
<circle cx="17.5" cy="122.5" r="2.5" fill="#D9D9D9" fill-opacity="0.7"/>
<circle cx="32.5" cy="122.5" r="2.5" fill="#D9D9D9" fill-opacity="0.7"/>
<circle cx="47.5" cy="122.5" r="2.5" fill="#D9D9D9" fill-opacity="0.7"/>
<circle cx="62.5" cy="122.5" r="2.5" fill="#D9D9D9" fill-opacity="0.7"/>
<circle cx="77.5" cy="122.5" r="2.5" fill="#D9D9D9" fill-opacity="0.7"/>
<circle cx="92.5" cy="122.5" r="2.5" fill="#D9D9D9" fill-opacity="0.7"/>
<circle cx="107.5" cy="122.5" r="2.5" fill="#D9D9D9" fill-opacity="0.7"/>
<circle cx="122.5" cy="122.5" r="2.5" fill="#D9D9D9" fill-opacity="0.7"/>
<circle cx="137.5" cy="122.5" r="2.5" fill="#D9D9D9" fill-opacity="0.7"/>
<circle cx="152.5" cy="122.5" r="2.5" fill="#D9D9D9" fill-opacity="0.7"/>
<circle cx="167.5" cy="122.5" r="2.5" fill="#D9D9D9" fill-opacity="0.7"/>
<circle cx="182.5" cy="122.5" r="2.5" fill="#D9D9D9" fill-opacity="0.7"/>
<circle cx="197.5" cy="122.5" r="2.5" fill="#D9D9D9" fill-opacity="0.7"/>
<circle cx="212.5" cy="122.5" r="2.5" fill="#D9D9D9" fill-opacity="0.7"/>
<circle cx="227.5" cy="122.5" r="2.5" fill="#D9D9D9" fill-opacity="0.7"/>
<circle cx="242.5" cy="122.5" r="2.5" fill="#D9D9D9" fill-opacity="0.7"/>
<circle cx="257.5" cy="122.5" r="2.5" fill="#D9D9D9" fill-opacity="0.7"/>
<circle cx="272.5" cy="122.5" r="2.5" fill="#D9D9D9" fill-opacity="0.7"/>
<circle cx="287.5" cy="122.5" r="2.5" fill="#D9D9D9" fill-opacity="0.7"/>
<circle cx="302.5" cy="122.5" r="2.5" fill="#D9D9D9" fill-opacity="0.7"/>
<circle cx="317.5" cy="122.5" r="2.5" fill="#D9D9D9" fill-opacity="0.7"/>
<circle cx="332.5" cy="122.5" r="2.5" fill="#D9D9D9" fill-opacity="0.7"/>
<circle cx="347.5" cy="122.5" r="2.5" fill="#D9D9D9" fill-opacity="0.7"/>
<circle cx="362.5" cy="122.5" r="2.5" fill="#D9D9D9" fill-opacity="0.7"/>
<circle cx="377.5" cy="122.5" r="2.5" fill="#D9D9D9" fill-opacity="0.7"/>
<circle cx="392.5" cy="122.5" r="2.5" fill="#D9D9D9" fill-opacity="0.7"/>
<circle cx="407.5" cy="122.5" r="2.5" fill="#D9D9D9" fill-opacity="0.7"/>
<circle cx="422.5" cy="122.5" r="2.5" fill="#D9D9D9" fill-opacity="0.7"/>
<circle cx="437.5" cy="122.5" r="2.5" fill="#D9D9D9" fill-opacity="0.7"/>
<circle cx="2.5" cy="137.5" r="2.5" fill="#D9D9D9" fill-opacity="0.7"/>
<circle cx="17.5" cy="137.5" r="2.5" fill="#D9D9D9" fill-opacity="0.7"/>
<circle cx="32.5" cy="137.5" r="2.5" fill="#D9D9D9" fill-opacity="0.7"/>
<circle cx="47.5" cy="137.5" r="2.5" fill="#D9D9D9" fill-opacity="0.7"/>
<circle cx="62.5" cy="137.5" r="2.5" fill="#D9D9D9" fill-opacity="0.7"/>
<circle cx="77.5" cy="137.5" r="2.5" fill="#D9D9D9" fill-opacity="0.7"/>
<circle cx="92.5" cy="137.5" r="2.5" fill="#D9D9D9" fill-opacity="0.7"/>
<circle cx="107.5" cy="137.5" r="2.5" fill="#D9D9D9" fill-opacity="0.7"/>
<circle cx="122.5" cy="137.5" r="2.5" fill="#D9D9D9" fill-opacity="0.7"/>
<circle cx="137.5" cy="137.5" r="2.5" fill="#D9D9D9" fill-opacity="0.7"/>
<circle cx="152.5" cy="137.5" r="2.5" fill="#D9D9D9" fill-opacity="0.7"/>
<circle cx="167.5" cy="137.5" r="2.5" fill="#D9D9D9" fill-opacity="0.7"/>
<circle cx="182.5" cy="137.5" r="2.5" fill="#D9D9D9" fill-opacity="0.7"/>
<circle cx="197.5" cy="137.5" r="2.5" fill="#D9D9D9" fill-opacity="0.7"/>
<circle cx="212.5" cy="137.5" r="2.5" fill="#D9D9D9" fill-opacity="0.7"/>
<circle cx="227.5" cy="137.5" r="2.5" fill="#D9D9D9" fill-opacity="0.7"/>
<circle cx="242.5" cy="137.5" r="2.5" fill="#D9D9D9" fill-opacity="0.7"/>
<circle cx="257.5" cy="137.5" r="2.5" fill="#D9D9D9" fill-opacity="0.7"/>
<circle cx="272.5" cy="137.5" r="2.5" fill="#D9D9D9" fill-opacity="0.7"/>
<circle cx="287.5" cy="137.5" r="2.5" fill="#D9D9D9" fill-opacity="0.7"/>
<circle cx="302.5" cy="137.5" r="2.5" fill="#D9D9D9" fill-opacity="0.7"/>
<circle cx="317.5" cy="137.5" r="2.5" fill="#D9D9D9" fill-opacity="0.7"/>
<circle cx="332.5" cy="137.5" r="2.5" fill="#D9D9D9" fill-opacity="0.7"/>
<circle cx="347.5" cy="137.5" r="2.5" fill="#D9D9D9" fill-opacity="0.7"/>
<circle cx="362.5" cy="137.5" r="2.5" fill="#D9D9D9" fill-opacity="0.7"/>
<circle cx="377.5" cy="137.5" r="2.5" fill="#D9D9D9" fill-opacity="0.7"/>
<circle cx="392.5" cy="137.5" r="2.5" fill="#D9D9D9" fill-opacity="0.7"/>
<circle cx="407.5" cy="137.5" r="2.5" fill="#D9D9D9" fill-opacity="0.7"/>
<circle cx="422.5" cy="137.5" r="2.5" fill="#D9D9D9" fill-opacity="0.7"/>
<circle cx="437.5" cy="137.5" r="2.5" fill="#D9D9D9" fill-opacity="0.7"/>
<circle cx="2.5" cy="152.5" r="2.5" fill="#D9D9D9" fill-opacity="0.7"/>
<circle cx="17.5" cy="152.5" r="2.5" fill="#D9D9D9" fill-opacity="0.7"/>
<circle cx="32.5" cy="152.5" r="2.5" fill="#D9D9D9" fill-opacity="0.7"/>
<circle cx="47.5" cy="152.5" r="2.5" fill="#D9D9D9" fill-opacity="0.7"/>
<circle cx="62.5" cy="152.5" r="2.5" fill="#D9D9D9" fill-opacity="0.7"/>
<circle cx="77.5" cy="152.5" r="2.5" fill="#D9D9D9" fill-opacity="0.7"/>
<circle cx="92.5" cy="152.5" r="2.5" fill="#D9D9D9" fill-opacity="0.7"/>
<circle cx="107.5" cy="152.5" r="2.5" fill="#D9D9D9" fill-opacity="0.7"/>
<circle cx="122.5" cy="152.5" r="2.5" fill="#D9D9D9" fill-opacity="0.7"/>
<circle cx="137.5" cy="152.5" r="2.5" fill="#D9D9D9" fill-opacity="0.7"/>
<circle cx="152.5" cy="152.5" r="2.5" fill="#D9D9D9" fill-opacity="0.7"/>
<circle cx="167.5" cy="152.5" r="2.5" fill="#D9D9D9" fill-opacity="0.7"/>
<circle cx="182.5" cy="152.5" r="2.5" fill="#D9D9D9" fill-opacity="0.7"/>
<circle cx="197.5" cy="152.5" r="2.5" fill="#D9D9D9" fill-opacity="0.7"/>
<circle cx="212.5" cy="152.5" r="2.5" fill="#D9D9D9" fill-opacity="0.7"/>
<circle cx="227.5" cy="152.5" r="2.5" fill="#D9D9D9" fill-opacity="0.7"/>
<circle cx="242.5" cy="152.5" r="2.5" fill="#D9D9D9" fill-opacity="0.7"/>
<circle cx="257.5" cy="152.5" r="2.5" fill="#D9D9D9" fill-opacity="0.7"/>
<circle cx="272.5" cy="152.5" r="2.5" fill="#D9D9D9" fill-opacity="0.7"/>
<circle cx="287.5" cy="152.5" r="2.5" fill="#D9D9D9" fill-opacity="0.7"/>
<circle cx="302.5" cy="152.5" r="2.5" fill="#D9D9D9" fill-opacity="0.7"/>
<circle cx="317.5" cy="152.5" r="2.5" fill="#D9D9D9" fill-opacity="0.7"/>
<circle cx="332.5" cy="152.5" r="2.5" fill="#D9D9D9" fill-opacity="0.7"/>
<circle cx="347.5" cy="152.5" r="2.5" fill="#D9D9D9" fill-opacity="0.7"/>
<circle cx="362.5" cy="152.5" r="2.5" fill="#D9D9D9" fill-opacity="0.7"/>
<circle cx="377.5" cy="152.5" r="2.5" fill="#D9D9D9" fill-opacity="0.7"/>
<circle cx="392.5" cy="152.5" r="2.5" fill="#D9D9D9" fill-opacity="0.7"/>
<circle cx="407.5" cy="152.5" r="2.5" fill="#D9D9D9" fill-opacity="0.7"/>
<circle cx="422.5" cy="152.5" r="2.5" fill="#D9D9D9" fill-opacity="0.7"/>
<circle cx="437.5" cy="152.5" r="2.5" fill="#D9D9D9" fill-opacity="0.7"/>
<circle cx="2.5" cy="167.5" r="2.5" fill="#D9D9D9" fill-opacity="0.7"/>
<circle cx="17.5" cy="167.5" r="2.5" fill="#D9D9D9" fill-opacity="0.7"/>
<circle cx="32.5" cy="167.5" r="2.5" fill="#D9D9D9" fill-opacity="0.7"/>
<circle cx="47.5" cy="167.5" r="2.5" fill="#D9D9D9" fill-opacity="0.7"/>
<circle cx="62.5" cy="167.5" r="2.5" fill="#D9D9D9" fill-opacity="0.7"/>
<circle cx="77.5" cy="167.5" r="2.5" fill="#D9D9D9" fill-opacity="0.7"/>
<circle cx="92.5" cy="167.5" r="2.5" fill="#D9D9D9" fill-opacity="0.7"/>
<circle cx="107.5" cy="167.5" r="2.5" fill="#D9D9D9" fill-opacity="0.7"/>
<circle cx="122.5" cy="167.5" r="2.5" fill="#D9D9D9" fill-opacity="0.7"/>
<circle cx="137.5" cy="167.5" r="2.5" fill="#D9D9D9" fill-opacity="0.7"/>
<circle cx="152.5" cy="167.5" r="2.5" fill="#D9D9D9" fill-opacity="0.7"/>
<circle cx="167.5" cy="167.5" r="2.5" fill="#D9D9D9" fill-opacity="0.7"/>
<circle cx="182.5" cy="167.5" r="2.5" fill="#D9D9D9" fill-opacity="0.7"/>
<circle cx="197.5" cy="167.5" r="2.5" fill="#D9D9D9" fill-opacity="0.7"/>
<circle cx="212.5" cy="167.5" r="2.5" fill="#D9D9D9" fill-opacity="0.7"/>
<circle cx="227.5" cy="167.5" r="2.5" fill="#D9D9D9" fill-opacity="0.7"/>
<circle cx="242.5" cy="167.5" r="2.5" fill="#D9D9D9" fill-opacity="0.7"/>
<circle cx="257.5" cy="167.5" r="2.5" fill="#D9D9D9" fill-opacity="0.7"/>
<circle cx="272.5" cy="167.5" r="2.5" fill="#D9D9D9" fill-opacity="0.7"/>
<circle cx="287.5" cy="167.5" r="2.5" fill="#D9D9D9" fill-opacity="0.7"/>
<circle cx="302.5" cy="167.5" r="2.5" fill="#D9D9D9" fill-opacity="0.7"/>
<circle cx="317.5" cy="167.5" r="2.5" fill="#D9D9D9" fill-opacity="0.7"/>
<circle cx="332.5" cy="167.5" r="2.5" fill="#D9D9D9" fill-opacity="0.7"/>
<circle cx="347.5" cy="167.5" r="2.5" fill="#D9D9D9" fill-opacity="0.7"/>
<circle cx="362.5" cy="167.5" r="2.5" fill="#D9D9D9" fill-opacity="0.7"/>
<circle cx="377.5" cy="167.5" r="2.5" fill="#D9D9D9" fill-opacity="0.7"/>
<circle cx="392.5" cy="167.5" r="2.5" fill="#D9D9D9" fill-opacity="0.7"/>
<circle cx="407.5" cy="167.5" r="2.5" fill="#D9D9D9" fill-opacity="0.7"/>
<circle cx="422.5" cy="167.5" r="2.5" fill="#D9D9D9" fill-opacity="0.7"/>
<circle cx="437.5" cy="167.5" r="2.5" fill="#D9D9D9" fill-opacity="0.7"/>
<circle cx="2.5" cy="182.5" r="2.5" fill="#D9D9D9" fill-opacity="0.7"/>
<circle cx="17.5" cy="182.5" r="2.5" fill="#D9D9D9" fill-opacity="0.7"/>
<circle cx="32.5" cy="182.5" r="2.5" fill="#D9D9D9" fill-opacity="0.7"/>
<circle cx="47.5" cy="182.5" r="2.5" fill="#D9D9D9" fill-opacity="0.7"/>
<circle cx="62.5" cy="182.5" r="2.5" fill="#D9D9D9" fill-opacity="0.7"/>
<circle cx="77.5" cy="182.5" r="2.5" fill="#D9D9D9" fill-opacity="0.7"/>
<circle cx="92.5" cy="182.5" r="2.5" fill="#D9D9D9" fill-opacity="0.7"/>
<circle cx="107.5" cy="182.5" r="2.5" fill="#D9D9D9" fill-opacity="0.7"/>
<circle cx="122.5" cy="182.5" r="2.5" fill="#D9D9D9" fill-opacity="0.7"/>
<circle cx="137.5" cy="182.5" r="2.5" fill="#D9D9D9" fill-opacity="0.7"/>
<circle cx="152.5" cy="182.5" r="2.5" fill="#D9D9D9" fill-opacity="0.7"/>
<circle cx="167.5" cy="182.5" r="2.5" fill="#D9D9D9" fill-opacity="0.7"/>
<circle cx="182.5" cy="182.5" r="2.5" fill="#D9D9D9" fill-opacity="0.7"/>
<circle cx="197.5" cy="182.5" r="2.5" fill="#D9D9D9" fill-opacity="0.7"/>
<circle cx="212.5" cy="182.5" r="2.5" fill="#D9D9D9" fill-opacity="0.7"/>
<circle cx="227.5" cy="182.5" r="2.5" fill="#D9D9D9" fill-opacity="0.7"/>
<circle cx="242.5" cy="182.5" r="2.5" fill="#D9D9D9" fill-opacity="0.7"/>
<circle cx="257.5" cy="182.5" r="2.5" fill="#D9D9D9" fill-opacity="0.7"/>
<circle cx="272.5" cy="182.5" r="2.5" fill="#D9D9D9" fill-opacity="0.7"/>
<circle cx="287.5" cy="182.5" r="2.5" fill="#D9D9D9" fill-opacity="0.7"/>
<circle cx="302.5" cy="182.5" r="2.5" fill="#D9D9D9" fill-opacity="0.7"/>
<circle cx="317.5" cy="182.5" r="2.5" fill="#D9D9D9" fill-opacity="0.7"/>
<circle cx="332.5" cy="182.5" r="2.5" fill="#D9D9D9" fill-opacity="0.7"/>
<circle cx="347.5" cy="182.5" r="2.5" fill="#D9D9D9" fill-opacity="0.7"/>
<circle cx="362.5" cy="182.5" r="2.5" fill="#D9D9D9" fill-opacity="0.7"/>
<circle cx="377.5" cy="182.5" r="2.5" fill="#D9D9D9" fill-opacity="0.7"/>
<circle cx="392.5" cy="182.5" r="2.5" fill="#D9D9D9" fill-opacity="0.7"/>
<circle cx="407.5" cy="182.5" r="2.5" fill="#D9D9D9" fill-opacity="0.7"/>
<circle cx="422.5" cy="182.5" r="2.5" fill="#D9D9D9" fill-opacity="0.7"/>
<circle cx="437.5" cy="182.5" r="2.5" fill="#D9D9D9" fill-opacity="0.7"/>
<line x1="153.5" y1="45" x2="153.5" y2="137.005" stroke="#333333" stroke-width="3"/>
<path d="M184.005 137.01C190.046 137.01 196.029 135.82 201.61 133.508C207.192 131.196 212.263 127.807 216.535 123.535C220.807 119.263 224.196 114.192 226.508 108.61C228.82 103.029 230.01 97.0465 230.01 91.005C230.01 84.9635 228.82 78.9812 226.508 73.3996C224.196 67.8181 220.807 62.7465 216.535 58.4746C212.263 54.2026 207.192 50.8139 201.61 48.5019C196.029 46.19 190.046 45 184.005 45V48.4136C189.598 48.4136 195.137 49.5152 200.304 51.6557C205.471 53.7961 210.167 56.9333 214.122 60.8883C218.077 64.8433 221.214 69.5385 223.354 74.706C225.495 79.8734 226.596 85.4118 226.596 91.005C226.596 96.5982 225.495 102.137 223.354 107.304C221.214 112.471 218.077 117.167 214.122 121.122C210.167 125.077 205.471 128.214 200.304 130.354C195.137 132.495 189.598 133.596 184.005 133.596V137.01Z" fill="#333333"/>
<path d="M276.005 45C269.964 45 263.981 46.19 258.4 48.5019C252.818 50.8139 247.747 54.2026 243.475 58.4746C239.203 62.7465 235.814 67.8181 233.502 73.3997C231.19 78.9812 230 84.9635 230 91.005C230 97.0465 231.19 103.029 233.502 108.61C235.814 114.192 239.203 119.264 243.475 123.535C247.747 127.807 252.818 131.196 258.4 133.508C263.981 135.82 269.964 137.01 276.005 137.01V133.596C270.412 133.596 264.873 132.495 259.706 130.354C254.539 128.214 249.843 125.077 245.888 121.122C241.933 117.167 238.796 112.471 236.656 107.304C234.515 102.137 233.414 96.5982 233.414 91.005C233.414 85.4118 234.515 79.8734 236.656 74.706C238.796 69.5386 241.933 64.8433 245.888 60.8883C249.843 56.9333 254.539 53.7961 259.706 51.6557C264.873 49.5152 270.412 48.4136 276.005 48.4136V45Z" fill="#333333"/>
</svg>
