<svg width="257" height="257" viewBox="0 0 257 257" fill="none" xmlns="http://www.w3.org/2000/svg">
<rect x="0.5" y="0.5" width="256" height="256" rx="128" fill="#FFFCCE"/>
<path fill-rule="evenodd" clip-rule="evenodd" d="M142.454 93.2162L118.073 50.9872L167.261 50.9872L156.824 69.0654L163.868 72.839L175.715 52.3184C178.106 48.1769 175.118 43 170.335 43H114.998C110.216 43 107.227 48.1769 109.618 52.3184L136.229 98.4096C136.59 95.5427 139.215 93.3179 142.399 93.3179L142.454 93.2162Z" fill="#FF995F"/>
<path fill-rule="evenodd" clip-rule="evenodd" d="M114.893 90.1613L60.2958 184.727H185.937L123.765 76.4169L126.233 72.019L118.745 67.8167C121.483 64.8356 126.546 65.2167 128.691 68.9534L194.39 183.41C196.768 187.551 193.778 192.714 189.003 192.714H57.2215C52.4393 192.714 49.4505 187.538 51.8416 183.396L107.928 86.2522L114.893 90.1613Z" fill="#FF995F"/>
<line x1="153.745" y1="163.546" x2="110.747" y2="89.0719" stroke="#FF995F" stroke-width="8.07594" stroke-linecap="round"/>
<path d="M158.357 67.0836C159.345 66.519 160.559 66.5247 161.542 67.0986L162.643 67.7418C164.245 68.6779 164.869 70.6821 164.08 72.3623V72.3623C163.168 74.3053 160.765 75.0174 158.942 73.8849L158.413 73.5565C156.762 72.5309 156.142 70.4307 156.971 68.6728L157.058 68.4891C157.336 67.8984 157.79 67.4077 158.357 67.0836V67.0836Z" fill="#FF995F"/>
<path d="M153.503 60.7494C153.503 62.955 151.715 64.743 149.509 64.743C147.304 64.743 145.516 62.955 145.516 60.7494C145.516 58.5438 147.304 56.7558 149.509 56.7558C151.715 56.7558 153.503 58.5438 153.503 60.7494Z" stroke="#FF995F" stroke-width="2.6624"/>
</svg>
