<svg width="200" height="75" viewBox="0 0 200 75" fill="none" xmlns="http://www.w3.org/2000/svg">
<rect width="75" height="75" rx="37.5" fill="#FF995F"/>
<path fill-rule="evenodd" clip-rule="evenodd" d="M42.9225 30.1304L35.7796 17.7585L50.1903 17.7585L47.1325 23.0547L49.1962 24.1603L52.6671 18.1485C53.3676 16.9351 52.492 15.4185 51.0909 15.4185H34.8789C33.4779 15.4185 32.6023 16.9351 33.3028 18.1485L41.0989 31.6518C41.2046 30.8119 41.9736 30.1601 42.9065 30.1601C42.9066 30.1601 42.9066 30.1601 42.9066 30.1601L42.9225 30.1304Z" fill="#FFFCCE"/>
<path fill-rule="evenodd" clip-rule="evenodd" d="M34.8484 29.2352L18.8529 56.9401H55.662L37.4476 25.2087L38.1707 23.9201L35.9768 22.6889C36.779 21.8156 38.2621 21.9273 38.8905 23.022L58.1385 56.5541C58.8349 57.7674 57.959 59.2801 56.56 59.2801H17.9523C16.5512 59.2801 15.6756 57.7635 16.3761 56.5501L32.8076 28.09L34.8484 29.2352Z" fill="#FFFCCE"/>
<line x1="46.2306" y1="50.7347" x2="33.6336" y2="28.9161" stroke="#FFFCCE" stroke-width="2.366" stroke-linecap="round"/>
<path d="M47.5818 22.4742C47.8712 22.3088 48.2269 22.3104 48.5148 22.4786L48.8374 22.667C49.3069 22.9412 49.4896 23.5284 49.2586 24.0207C48.9914 24.5899 48.2873 24.7985 47.7531 24.4667L47.5982 24.3705C47.1145 24.0701 46.9328 23.4548 47.1758 22.9398L47.2011 22.8859C47.2828 22.7129 47.4157 22.5691 47.5818 22.4742Z" fill="#FFFCCE"/>
<path d="M46.1596 20.6185C46.1596 21.2646 45.6357 21.7885 44.9896 21.7885C44.3434 21.7885 43.8196 21.2646 43.8196 20.6185C43.8196 19.9723 44.3434 19.4485 44.9896 19.4485C45.6357 19.4485 46.1596 19.9723 46.1596 20.6185Z" stroke="#FFFCCE" stroke-width="0.779999"/>
<path d="M88 2L88 73.007" stroke="#FF995F" stroke-width="3" stroke-linecap="round"/>
<path d="M106.008 50H97.592V26.608H105.784C112.696 26.608 117.464 31.376 117.464 38.352C117.464 45.232 112.792 50 106.008 50ZM105.4 30.384H101.688V46.224H105.624C110.296 46.224 113.144 43.216 113.144 38.352C113.144 33.392 110.232 30.384 105.4 30.384ZM136.512 50H119.68V46.192L131.232 30.384H119.936V26.608H136.319V30.256L124.672 46.224H136.512V50ZM142.108 50H137.852L146.3 26.608H150.492L158.94 50H154.62L152.732 44.592H143.996L142.108 50ZM147.868 33.584L145.212 41.136H151.548L148.86 33.584C148.668 32.976 148.444 32.272 148.38 31.792C148.284 32.24 148.092 32.944 147.868 33.584ZM176.401 50H161.873V26.608H176.401V30.384H165.969V36.4H175.313V40.016H165.969V46.224H176.401V50ZM184.874 50H180.842V26.608H184.906L195.882 43.184V26.608H199.914V50H195.882L184.874 33.424V50Z" fill="#FF995F"/>
</svg>
