<svg width="396" height="177" viewBox="0 0 396 177" fill="none" xmlns="http://www.w3.org/2000/svg">
<path fill-rule="evenodd" clip-rule="evenodd" d="M80.3358 0.90298C83.1513 -0.844547 86.8503 0.0211837 88.5978 2.83664L182.862 154.707L292.126 2.50184C294.058 -0.190068 297.807 -0.805742 300.499 1.12669C303.191 3.05913 303.807 6.8079 301.874 9.4998L187.374 169L182.138 176.294L177.402 168.665L78.4022 9.165C76.6546 6.34954 77.5204 2.65051 80.3358 0.90298ZM0 32.5008C0 29.1871 2.68629 26.5008 6 26.5008H389.5L391.182 38.2602L47.9475 138.501H389.5C392.814 138.501 395.5 141.187 395.5 144.501C395.5 147.815 392.814 150.501 389.5 150.501H6L4.31798 138.741L347.553 38.5008H6C2.68629 38.5008 0 35.8145 0 32.5008Z" fill="#333333"/>
</svg>
