<svg width="250" height="251" viewBox="0 0 250 251" fill="none" xmlns="http://www.w3.org/2000/svg">
<mask id="path-1-inside-1_11_51" fill="white">
<path fill-rule="evenodd" clip-rule="evenodd" d="M125 0.0341797C125 69.0698 69.0356 125.034 0 125.034C69.0356 125.034 125 180.999 125 250.034C125 180.999 180.964 125.034 250 125.034C180.964 125.034 125 69.0698 125 0.0341797Z"/>
</mask>
<path fill-rule="evenodd" clip-rule="evenodd" d="M125 0.0341797C125 69.0698 69.0356 125.034 0 125.034C69.0356 125.034 125 180.999 125 250.034C125 180.999 180.964 125.034 250 125.034C180.964 125.034 125 69.0698 125 0.0341797Z" fill="#FFFCCE"/>
<path d="M0 127.034C70.1402 127.034 127 70.1743 127 0.0341797H123C123 67.9652 67.931 123.034 0 123.034V127.034ZM0 127.034C67.931 127.034 123 182.103 123 250.034H127C127 179.894 70.1402 123.034 0 123.034V127.034ZM250 123.034C179.86 123.034 123 179.894 123 250.034H127C127 182.103 182.069 127.034 250 127.034V123.034ZM123 0.0341797C123 70.1743 179.86 127.034 250 127.034V123.034C182.069 123.034 127 67.9652 127 0.0341797H123Z" fill="#333333" mask="url(#path-1-inside-1_11_51)"/>
</svg>