<svg width="250" height="251" viewBox="0 0 250 251" fill="none" xmlns="http://www.w3.org/2000/svg">
<mask id="path-1-inside-1_0_1" fill="white">
<path fill-rule="evenodd" clip-rule="evenodd" d="M125 0.0341797C125.033 69.0641 180.985 125.013 250 125.013C180.979 125.014 125.024 180.973 125 250.011C124.977 180.973 69.0212 125.013 0 125.013C69.015 125.013 124.967 69.0641 125 0.0341797Z"/>
</mask>
<path fill-rule="evenodd" clip-rule="evenodd" d="M125 0.0341797C125.033 69.0641 180.985 125.013 250 125.013C180.979 125.014 125.024 180.973 125 250.011C124.977 180.973 69.0212 125.013 0 125.013C69.015 125.013 124.967 69.0641 125 0.0341797Z" fill="#FFFCCE"/>
<path d="M125 0.0341797L127 0.0332124L123 0.0332133L125 0.0341797ZM125 250.011L123 250.012L127 250.012L125 250.011ZM250 123.013C182.09 123.013 127.033 67.9596 127 0.0332124L123 0.035147C123.034 70.1686 179.88 127.013 250 127.013V123.013ZM127 250.012C127.023 182.077 182.084 127.014 250 127.013L250 123.013C179.874 123.014 123.024 179.869 123 250.011L127 250.012ZM0 127.013C67.9162 127.013 122.977 182.077 123 250.012L127 250.011C126.976 179.869 70.1261 123.013 0 123.013L0 127.013ZM123 0.0332133C122.967 67.9596 67.9101 123.013 0 123.013L0 127.013C70.1199 127.013 126.966 70.1686 127 0.0351461L123 0.0332133Z" fill="#333333" mask="url(#path-1-inside-1_0_1)"/>
<mask id="path-3-inside-2_0_1" fill="white">
<path fill-rule="evenodd" clip-rule="evenodd" d="M10.5007 14.5C73.8647 77.81 176.454 77.8933 239.674 14.6733C176.437 77.9099 176.537 180.537 239.897 243.897C176.549 180.548 73.948 180.437 10.7086 243.639C73.894 180.416 73.7992 77.8524 10.5007 14.5Z"/>
</mask>
<path fill-rule="evenodd" clip-rule="evenodd" d="M10.5007 14.5C73.8647 77.81 176.454 77.8933 239.674 14.6733C176.437 77.9099 176.537 180.537 239.897 243.897C176.549 180.548 73.948 180.437 10.7086 243.639C73.894 180.416 73.7992 77.8524 10.5007 14.5Z" fill="#FFFCCE"/>
<path d="M10.5007 14.5L11.9144 13.0852L9.08593 15.9136L10.5007 14.5ZM10.7086 243.639L9.29396 242.225L12.1224 245.053L10.7086 243.639ZM238.26 13.2591C175.823 75.6956 74.4998 75.6173 11.9144 13.0852L9.08713 15.9148C73.2296 80.0026 177.085 80.0909 241.088 16.0875L238.26 13.2591ZM241.312 242.482C178.73 179.901 178.635 78.5405 241.088 16.0875L238.26 13.2591C174.24 77.2793 174.345 181.172 238.483 245.311L241.312 242.482ZM12.1224 245.053C74.5781 182.635 175.913 182.741 238.483 245.311L241.312 242.482C177.185 178.356 73.3179 178.239 9.2948 242.224L12.1224 245.053ZM9.08593 15.9136C71.6067 78.4876 71.6964 179.786 9.29396 242.225L12.1232 245.053C76.0917 181.046 75.9917 77.2171 11.9156 13.0864L9.08593 15.9136Z" fill="#333333" mask="url(#path-3-inside-2_0_1)"/>
</svg>
