<svg width="411" height="185" viewBox="0 0 411 185" fill="none" xmlns="http://www.w3.org/2000/svg">
<mask id="path-1-inside-1_37_3693" fill="white">
<path d="M384.5 1.60688L384.442 1.62676C384.017 1.83134 383.609 2.07115 383.223 2.34367C383.147 2.39536 383.059 2.4304 382.983 2.48552C382.519 2.8261 382.089 3.21218 381.702 3.63803L374.776 11.2486L369.924 16.5841L369.894 16.6061L369.875 16.6379L321.701 69.5954C321.548 69.7667 321.43 69.9673 321.355 70.1852L321.356 70.2092L310.721 102.273C310.617 102.588 310.606 102.926 310.691 103.247C310.775 103.568 310.95 103.857 311.195 104.08C311.44 104.304 311.745 104.451 312.072 104.504C312.399 104.558 312.735 104.516 313.038 104.382L343.952 90.7797L343.976 90.7786C344.186 90.6837 344.374 90.5475 344.53 90.3781L392.7 37.4174L392.73 37.3954L392.749 37.3636L397.602 32.0281L404.524 24.4142C404.911 23.9881 405.255 23.5244 405.55 23.0299C405.598 22.9521 405.621 22.8652 405.665 22.7841C405.902 22.3721 406.103 21.9411 406.267 21.4954L406.285 21.4293C407.008 19.3561 406.901 17.083 405.985 15.0871L405.983 15.0392C405.777 14.6098 405.536 14.1985 405.262 13.8095C405.211 13.7364 405.179 13.652 405.124 13.5825C404.784 13.118 404.398 12.6888 403.972 12.3011L393.828 3.0688C393.402 2.68138 392.938 2.33746 392.444 2.04215C392.363 1.99448 392.275 1.96768 392.194 1.92343C391.784 1.68833 391.354 1.48808 390.91 1.32478L390.862 1.32705C388.787 0.601789 386.512 0.709231 384.515 1.6268L384.5 1.60688ZM327.025 68.8426L371.282 20.1875L373.814 22.4923L333.307 67.0247C332.853 67.5264 332.304 67.933 331.692 68.2207C331.08 68.5084 330.416 68.6715 329.74 68.7006L327.025 68.8426ZM335.847 69.3326L376.35 24.8004L383.966 31.7311L343.462 76.2633C343.007 76.7686 342.455 77.1785 341.84 77.4693C341.225 77.76 340.559 77.9259 339.879 77.9572L336.454 78.119C336 78.1404 335.555 77.9805 335.219 77.6744C334.883 77.3683 334.682 76.941 334.66 76.4867L334.498 73.0603C334.466 72.3806 334.568 71.7012 334.799 71.0613C335.031 70.4215 335.387 69.8339 335.847 69.3326ZM315.189 99.6963L317.096 93.9414L317.127 93.8459C318.647 94.6067 319.924 95.776 320.816 97.2225L315.189 99.6963ZM323.933 95.8493C322.63 93.5318 320.622 91.6891 318.202 90.5878L324.237 72.4082L329.893 72.1412C330.311 72.1119 330.727 72.052 331.137 71.9622C331.085 72.38 331.064 72.8011 331.073 73.2221L331.235 76.6484C331.299 78.0115 331.902 79.2932 332.911 80.2116C333.921 81.1299 335.253 81.6097 336.616 81.5453L340.041 81.3835C340.461 81.3533 340.878 81.2923 341.289 81.201C341.238 81.6143 341.218 82.0307 341.228 82.447L341.495 88.1142L323.933 95.8493ZM389.028 36.3477L344.781 85.0023L344.653 82.2887C344.619 81.614 344.72 80.9394 344.949 80.3038C345.177 79.6682 345.53 79.0842 345.985 78.5857L386.502 34.0392L389.028 36.3477ZM391.335 33.8109L387.626 30.4353C387.597 30.4024 387.585 30.3652 387.552 30.3324C387.52 30.2995 387.479 30.2946 387.443 30.2688L377.474 21.1965C377.445 21.1636 377.433 21.1264 377.401 21.0936C377.368 21.0607 377.327 21.0558 377.291 21.03L373.582 17.6545L376.157 14.8234L393.914 30.9832L391.335 33.8109ZM391.5 5.59972L401.644 14.832C402.144 15.2867 402.549 15.8356 402.837 16.4471C403.125 17.0587 403.29 17.721 403.322 18.3962C403.354 19.0714 403.252 19.7463 403.023 20.3823C402.794 21.0183 402.442 21.6029 401.987 22.1027L396.217 28.4465L378.461 12.2868L384.231 5.94299C384.685 5.4416 385.234 5.03484 385.846 4.74597C386.458 4.4571 387.121 4.29182 387.797 4.25958C388.472 4.22734 389.148 4.32879 389.784 4.55811C390.421 4.78743 391.006 5.14012 391.506 5.59598L391.5 5.59972Z"/>
</mask>
<path d="M384.5 1.60688L384.442 1.62676C384.017 1.83134 383.609 2.07115 383.223 2.34367C383.147 2.39536 383.059 2.4304 382.983 2.48552C382.519 2.8261 382.089 3.21218 381.702 3.63803L374.776 11.2486L369.924 16.5841L369.894 16.6061L369.875 16.6379L321.701 69.5954C321.548 69.7667 321.43 69.9673 321.355 70.1852L321.356 70.2092L310.721 102.273C310.617 102.588 310.606 102.926 310.691 103.247C310.775 103.568 310.95 103.857 311.195 104.08C311.44 104.304 311.745 104.451 312.072 104.504C312.399 104.558 312.735 104.516 313.038 104.382L343.952 90.7797L343.976 90.7786C344.186 90.6837 344.374 90.5475 344.53 90.3781L392.7 37.4174L392.73 37.3954L392.749 37.3636L397.602 32.0281L404.524 24.4142C404.911 23.9881 405.255 23.5244 405.55 23.0299C405.598 22.9521 405.621 22.8652 405.665 22.7841C405.902 22.3721 406.103 21.9411 406.267 21.4954L406.285 21.4293C407.008 19.3561 406.901 17.083 405.985 15.0871L405.983 15.0392C405.777 14.6098 405.536 14.1985 405.262 13.8095C405.211 13.7364 405.179 13.652 405.124 13.5825C404.784 13.118 404.398 12.6888 403.972 12.3011L393.828 3.0688C393.402 2.68138 392.938 2.33746 392.444 2.04215C392.363 1.99448 392.275 1.96768 392.194 1.92343C391.784 1.68833 391.354 1.48808 390.91 1.32478L390.862 1.32705C388.787 0.601789 386.512 0.709231 384.515 1.6268L384.5 1.60688ZM327.025 68.8426L371.282 20.1875L373.814 22.4923L333.307 67.0247C332.853 67.5264 332.304 67.933 331.692 68.2207C331.08 68.5084 330.416 68.6715 329.74 68.7006L327.025 68.8426ZM335.847 69.3326L376.35 24.8004L383.966 31.7311L343.462 76.2633C343.007 76.7686 342.455 77.1785 341.84 77.4693C341.225 77.76 340.559 77.9259 339.879 77.9572L336.454 78.119C336 78.1404 335.555 77.9805 335.219 77.6744C334.883 77.3683 334.682 76.941 334.66 76.4867L334.498 73.0603C334.466 72.3806 334.568 71.7012 334.799 71.0613C335.031 70.4215 335.387 69.8339 335.847 69.3326ZM315.189 99.6963L317.096 93.9414L317.127 93.8459C318.647 94.6067 319.924 95.776 320.816 97.2225L315.189 99.6963ZM323.933 95.8493C322.63 93.5318 320.622 91.6891 318.202 90.5878L324.237 72.4082L329.893 72.1412C330.311 72.1119 330.727 72.052 331.137 71.9622C331.085 72.38 331.064 72.8011 331.073 73.2221L331.235 76.6484C331.299 78.0115 331.902 79.2932 332.911 80.2116C333.921 81.1299 335.253 81.6097 336.616 81.5453L340.041 81.3835C340.461 81.3533 340.878 81.2923 341.289 81.201C341.238 81.6143 341.218 82.0307 341.228 82.447L341.495 88.1142L323.933 95.8493ZM389.028 36.3477L344.781 85.0023L344.653 82.2887C344.619 81.614 344.72 80.9394 344.949 80.3038C345.177 79.6682 345.53 79.0842 345.985 78.5857L386.502 34.0392L389.028 36.3477ZM391.335 33.8109L387.626 30.4353C387.597 30.4024 387.585 30.3652 387.552 30.3324C387.52 30.2995 387.479 30.2946 387.443 30.2688L377.474 21.1965C377.445 21.1636 377.433 21.1264 377.401 21.0936C377.368 21.0607 377.327 21.0558 377.291 21.03L373.582 17.6545L376.157 14.8234L393.914 30.9832L391.335 33.8109ZM391.5 5.59972L401.644 14.832C402.144 15.2867 402.549 15.8356 402.837 16.4471C403.125 17.0587 403.29 17.721 403.322 18.3962C403.354 19.0714 403.252 19.7463 403.023 20.3823C402.794 21.0183 402.442 21.6029 401.987 22.1027L396.217 28.4465L378.461 12.2868L384.231 5.94299C384.685 5.4416 385.234 5.03484 385.846 4.74597C386.458 4.4571 387.121 4.29182 387.797 4.25958C388.472 4.22734 389.148 4.32879 389.784 4.55811C390.421 4.78743 391.006 5.14012 391.506 5.59598L391.5 5.59972Z" fill="#333333"/>
<path d="M319.283 95.1914L319.482 95.0408L319.451 94.9998L319.407 94.9744L319.283 95.1914ZM316.972 94.1584L319.159 95.4085L319.407 94.9744L317.22 93.7243L316.972 94.1584ZM319.083 95.342L320.616 97.3731L321.015 97.0719L319.482 95.0408L319.083 95.342ZM384.5 1.60688L384.902 1.31018L384.684 1.014L384.336 1.13441L384.5 1.60688ZM384.442 1.62676L384.279 1.15429L384.252 1.16368L384.226 1.17611L384.442 1.62676ZM383.223 2.34367L383.503 2.75809L383.512 2.75203L383.223 2.34367ZM382.983 2.48552L382.69 2.08009L382.687 2.08236L382.983 2.48552ZM381.702 3.63803L381.332 3.30147L381.332 3.30151L381.702 3.63803ZM374.776 11.2486L374.407 10.9121L374.407 10.9122L374.776 11.2486ZM369.924 16.5841L370.22 16.9866L370.26 16.9572L370.294 16.9206L369.924 16.5841ZM369.894 16.6061L369.597 16.2037L369.517 16.263L369.465 16.3487L369.894 16.6061ZM369.875 16.6379L370.245 16.9744L370.278 16.9378L370.303 16.8953L369.875 16.6379ZM321.701 69.5954L321.332 69.2589L321.329 69.2613L321.701 69.5954ZM321.355 70.1852L320.882 70.0231L320.851 70.1134L320.856 70.2088L321.355 70.1852ZM321.356 70.2092L321.831 70.3666L321.86 70.2784L321.856 70.1856L321.356 70.2092ZM310.721 102.273L310.247 102.116L310.246 102.116L310.721 102.273ZM313.038 104.382L313.24 104.84L313.24 104.84L313.038 104.382ZM343.952 90.7797L343.928 90.2803L343.836 90.2846L343.751 90.322L343.952 90.7797ZM343.976 90.7786L344 91.278L344.095 91.2735L344.182 91.2341L343.976 90.7786ZM344.53 90.3781L344.898 90.7169L344.9 90.7145L344.53 90.3781ZM392.7 37.4174L392.403 37.015L392.363 37.0444L392.33 37.081L392.7 37.4174ZM392.73 37.3954L393.027 37.7978L393.107 37.7385L393.159 37.6527L392.73 37.3954ZM392.749 37.3636L392.379 37.0272L392.346 37.0638L392.32 37.1062L392.749 37.3636ZM397.602 32.0281L397.972 32.3645L397.972 32.3644L397.602 32.0281ZM404.524 24.4142L404.894 24.7506L404.894 24.7505L404.524 24.4142ZM405.55 23.0299L405.124 22.7681L405.121 22.7736L405.55 23.0299ZM405.665 22.7841L405.232 22.5353L405.226 22.5446L405.665 22.7841ZM406.267 21.4954L406.736 21.6682L406.744 21.646L406.75 21.6232L406.267 21.4954ZM406.285 21.4293L405.812 21.2646L405.806 21.2828L405.801 21.3015L406.285 21.4293ZM405.985 15.0871L405.486 15.1107L405.49 15.2075L405.531 15.2956L405.985 15.0871ZM405.983 15.0392L406.482 15.0156L406.477 14.9146L406.434 14.8234L405.983 15.0392ZM405.262 13.8095L404.853 14.0975L404.853 14.0976L405.262 13.8095ZM405.124 13.5825L404.721 13.8781L404.726 13.8851L404.732 13.8919L405.124 13.5825ZM403.972 12.3011L404.309 11.9314L404.309 11.9313L403.972 12.3011ZM393.828 3.0688L394.164 2.69901L394.164 2.6989L393.828 3.0688ZM392.444 2.04215L392.7 1.61291L392.697 1.61096L392.444 2.04215ZM392.194 1.92343L391.946 2.35747L391.955 2.36229L392.194 1.92343ZM390.91 1.32478L391.082 0.855488L390.987 0.820563L390.886 0.825338L390.91 1.32478ZM390.862 1.32705L390.697 1.79904L390.788 1.83107L390.885 1.82649L390.862 1.32705ZM384.515 1.6268L384.112 1.92349L384.354 2.25101L384.723 2.08114L384.515 1.6268ZM327.025 68.8426L326.655 68.5062L325.837 69.4054L327.051 69.3419L327.025 68.8426ZM371.282 20.1875L371.618 19.8177L371.248 19.4811L370.912 19.8511L371.282 20.1875ZM373.814 22.4923L374.184 22.8288L374.52 22.459L374.151 22.1225L373.814 22.4923ZM333.307 67.0247L332.937 66.6882L332.936 66.6892L333.307 67.0247ZM329.74 68.7006L329.719 68.2011L329.714 68.2013L329.74 68.7006ZM335.847 69.3326L336.215 69.6706L336.217 69.669L335.847 69.3326ZM376.35 24.8004L376.687 24.4306L376.317 24.094L375.98 24.464L376.35 24.8004ZM383.966 31.7311L384.336 32.0675L384.672 31.6978L384.302 31.3613L383.966 31.7311ZM343.462 76.2633L343.092 75.9269L343.091 75.9285L343.462 76.2633ZM339.879 77.9572L339.856 77.4577L339.856 77.4577L339.879 77.9572ZM334.498 73.0603L334.998 73.0367L334.998 73.0361L334.498 73.0603ZM315.189 99.6963L314.715 99.539L314.361 100.607L315.391 100.154L315.189 99.6963ZM317.127 93.8459L317.351 93.3989L316.834 93.1401L316.653 93.6887L317.127 93.8459ZM320.816 97.2225L321.017 97.6802L321.543 97.449L321.242 96.9601L320.816 97.2225ZM323.933 95.8493L323.498 96.0945L323.72 96.4897L324.135 96.3069L323.933 95.8493ZM318.202 90.5878L317.728 90.4303L317.586 90.8568L317.995 91.0429L318.202 90.5878ZM324.237 72.4082L324.214 71.9088L323.871 71.925L323.763 72.2507L324.237 72.4082ZM329.893 72.1412L329.916 72.6407L329.928 72.6399L329.893 72.1412ZM331.137 71.9622L331.633 72.0241L331.721 71.3224L331.03 71.4738L331.137 71.9622ZM331.073 73.2221L330.573 73.2334L330.574 73.2457L331.073 73.2221ZM331.235 76.6484L330.735 76.672L331.235 76.6484ZM340.041 81.3835L340.065 81.8831L340.077 81.8823L340.041 81.3835ZM341.289 81.201L341.785 81.2618L341.871 80.5594L341.18 80.7129L341.289 81.201ZM341.228 82.447L340.728 82.4588L340.728 82.4706L341.228 82.447ZM341.495 88.1142L341.697 88.5718L342.011 88.4334L341.995 88.0906L341.495 88.1142ZM389.028 36.3477L389.398 36.6841L389.733 36.3151L389.365 35.9786L389.028 36.3477ZM344.781 85.0023L344.282 85.0259L344.339 86.2321L345.151 85.3387L344.781 85.0023ZM344.653 82.2887L345.152 82.2651L345.152 82.2638L344.653 82.2887ZM345.985 78.5857L346.354 78.923L346.355 78.9221L345.985 78.5857ZM386.502 34.0392L386.839 33.6701L386.469 33.332L386.132 33.7028L386.502 34.0392ZM391.335 33.8109L390.998 34.1807L391.368 34.5169L391.704 34.1478L391.335 33.8109ZM387.626 30.4353L387.251 30.7657L387.269 30.7865L387.289 30.8051L387.626 30.4353ZM387.443 30.2688L387.106 30.6386L387.127 30.6573L387.149 30.6735L387.443 30.2688ZM377.474 21.1965L377.099 21.5269L377.117 21.5477L377.138 21.5663L377.474 21.1965ZM377.291 21.03L376.955 21.3998L376.975 21.4185L376.998 21.4347L377.291 21.03ZM373.582 17.6545L373.212 17.318L372.876 17.6878L373.246 18.0242L373.582 17.6545ZM376.157 14.8234L376.494 14.4536L376.124 14.117L375.787 14.487L376.157 14.8234ZM393.914 30.9832L394.283 31.3201L394.62 30.9502L394.25 30.6134L393.914 30.9832ZM391.5 5.59972L391.255 5.16345L390.65 5.50245L391.163 5.96951L391.5 5.59972ZM401.644 14.832L401.307 15.2018L401.308 15.2019L401.644 14.832ZM403.322 18.3962L402.822 18.4198L403.322 18.3962ZM401.987 22.1027L401.618 21.7662L401.617 21.7663L401.987 22.1027ZM396.217 28.4465L395.881 28.8163L396.251 29.1529L396.587 28.7829L396.217 28.4465ZM378.461 12.2868L378.091 11.9504L377.755 12.3201L378.124 12.6566L378.461 12.2868ZM384.231 5.94299L384.601 6.27941L384.601 6.27877L384.231 5.94299ZM391.506 5.59598L391.75 6.03225L392.355 5.69353L391.843 5.22646L391.506 5.59598ZM317.096 93.9414L316.621 93.7841L316.621 93.7841L317.096 93.9414ZM384.336 1.13441L384.279 1.15429L384.606 2.09924L384.664 2.07936L384.336 1.13441ZM384.226 1.17611C383.775 1.39276 383.343 1.64672 382.935 1.93531L383.512 2.75203C383.875 2.49559 384.259 2.26992 384.659 2.07741L384.226 1.17611ZM382.943 1.92935C382.93 1.93818 382.914 1.94701 382.866 1.97321C382.826 1.9947 382.758 2.03109 382.69 2.0801L383.275 2.89093C383.284 2.88483 383.298 2.87614 383.34 2.85342C383.374 2.83539 383.44 2.80085 383.503 2.758L382.943 1.92935ZM382.687 2.08236C382.196 2.44262 381.742 2.85101 381.332 3.30147L382.072 3.97458C382.437 3.57334 382.841 3.20957 383.279 2.88867L382.687 2.08236ZM381.332 3.30151L374.407 10.9121L375.146 11.5851L382.072 3.97454L381.332 3.30151ZM374.407 10.9122L369.554 16.2477L370.294 16.9206L375.146 11.585L374.407 10.9122ZM369.627 16.1817L369.597 16.2037L370.19 17.0086L370.22 16.9866L369.627 16.1817ZM369.465 16.3487L369.446 16.3806L370.303 16.8953L370.322 16.8635L369.465 16.3487ZM369.505 16.3015L321.332 69.2589L322.071 69.9318L370.245 16.9744L369.505 16.3015ZM321.329 69.2613C321.131 69.4826 320.979 69.7417 320.882 70.0231L321.828 70.3473C321.881 70.1929 321.964 70.0508 322.073 69.9294L321.329 69.2613ZM320.856 70.2088L320.857 70.2328L321.856 70.1856L321.855 70.1616L320.856 70.2088ZM320.882 70.0518L310.247 102.116L311.196 102.431L321.831 70.3666L320.882 70.0518ZM310.246 102.116C310.112 102.523 310.098 102.96 310.207 103.374L311.174 103.12C311.115 102.893 311.122 102.653 311.196 102.43L310.246 102.116ZM310.207 103.374C310.316 103.788 310.542 104.162 310.859 104.45L311.532 103.711C311.358 103.553 311.234 103.348 311.174 103.12L310.207 103.374ZM310.859 104.45C311.175 104.738 311.569 104.929 311.991 104.998L312.153 104.011C311.921 103.973 311.705 103.869 311.532 103.711L310.859 104.45ZM311.991 104.998C312.414 105.067 312.848 105.012 313.24 104.84L312.837 103.924C312.622 104.019 312.385 104.049 312.153 104.011L311.991 104.998ZM313.24 104.84L344.153 91.2374L343.751 90.322L312.837 103.925L313.24 104.84ZM343.976 91.2791L344 91.278L343.952 90.2791L343.928 90.2803L343.976 91.2791ZM344.182 91.2341C344.453 91.1115 344.697 90.9356 344.898 90.7169L344.163 90.0393C344.052 90.1593 343.919 90.2558 343.77 90.323L344.182 91.2341ZM344.9 90.7145L393.07 37.7538L392.33 37.081L344.161 90.0417L344.9 90.7145ZM392.997 37.8198L393.027 37.7978L392.433 36.993L392.403 37.015L392.997 37.8198ZM393.159 37.6527L393.178 37.6209L392.32 37.1062L392.301 37.1381L393.159 37.6527ZM393.119 37.7L397.972 32.3645L397.232 31.6916L392.379 37.0272L393.119 37.7ZM397.972 32.3644L404.894 24.7506L404.154 24.0779L397.232 31.6917L397.972 32.3644ZM404.894 24.7505C405.303 24.2998 405.667 23.8093 405.979 23.2862L405.121 22.7736C404.842 23.2395 404.519 23.6764 404.154 24.0779L404.894 24.7505ZM405.976 23.2917C406.022 23.2161 406.053 23.1423 406.07 23.1007C406.092 23.0494 406.098 23.0358 406.104 23.0236L405.226 22.5446C405.189 22.6134 405.161 22.6839 405.147 22.7158C405.139 22.7356 405.134 22.7474 405.13 22.7567C405.126 22.7655 405.124 22.7684 405.124 22.7681L405.976 23.2917ZM406.099 23.0329C406.349 22.5966 406.562 22.1401 406.736 21.6682L405.798 21.3226C405.643 21.742 405.454 22.1477 405.232 22.5353L406.099 23.0329ZM406.75 21.6232L406.768 21.5572L405.801 21.3015L405.784 21.3676L406.75 21.6232ZM406.757 21.5941C407.523 19.3988 407.409 16.9919 406.439 14.8786L405.531 15.2956C406.392 17.174 406.493 19.3133 405.812 21.2646L406.757 21.5941ZM406.484 15.0635L406.482 15.0156L405.483 15.0628L405.486 15.1107L406.484 15.0635ZM406.434 14.8234C406.216 14.3688 405.961 13.9333 405.671 13.5214L404.853 14.0976C405.112 14.4637 405.338 14.8508 405.532 15.2549L406.434 14.8234ZM405.671 13.5215C405.666 13.5142 405.66 13.5049 405.634 13.4559C405.613 13.4177 405.574 13.3449 405.517 13.273L404.732 13.8919C404.73 13.8896 404.734 13.8937 404.755 13.9334C404.771 13.9623 404.807 14.0317 404.853 14.0975L405.671 13.5215ZM405.528 13.2869C405.167 12.7956 404.759 12.3415 404.309 11.9314L403.636 12.6708C404.037 13.0361 404.4 13.4405 404.721 13.8781L405.528 13.2869ZM404.309 11.9313L394.164 2.69901L393.491 3.43859L403.636 12.6709L404.309 11.9313ZM394.164 2.6989C393.713 2.28908 393.223 1.92529 392.7 1.61292L392.187 2.47138C392.653 2.74963 393.09 3.07367 393.491 3.4387L394.164 2.6989ZM392.697 1.61096C392.627 1.56986 392.559 1.54057 392.518 1.5226C392.468 1.50124 392.45 1.49332 392.434 1.48458L391.955 2.36229C392.02 2.3978 392.086 2.4254 392.121 2.44042C392.163 2.45883 392.179 2.46677 392.191 2.47334L392.697 1.61096ZM392.443 1.48948C392.008 1.2405 391.553 1.02843 391.082 0.855488L390.737 1.79407C391.155 1.94774 391.56 2.13616 391.946 2.35739L392.443 1.48948ZM390.886 0.825338L390.838 0.827603L390.885 1.82649L390.933 1.82422L390.886 0.825338ZM391.027 0.855053C388.83 0.0870873 386.421 0.200856 384.306 1.17245L384.723 2.08114C386.603 1.2176 388.744 1.11648 390.697 1.79904L391.027 0.855053ZM384.917 1.3301L384.902 1.31018L384.097 1.90358L384.112 1.92349L384.917 1.3301ZM327.395 69.179L371.651 20.524L370.912 19.8511L326.655 68.5062L327.395 69.179ZM370.945 20.5573L373.478 22.8621L374.151 22.1225L371.618 19.8177L370.945 20.5573ZM373.444 22.1559L332.937 66.6882L333.677 67.3611L374.184 22.8288L373.444 22.1559ZM332.936 66.6892C332.527 67.1419 332.032 67.5086 331.479 67.7682L331.905 68.6732C332.577 68.3573 333.18 67.911 333.678 67.3601L332.936 66.6892ZM331.479 67.7682C330.927 68.0277 330.329 68.1748 329.719 68.2011L329.762 69.2002C330.504 69.1682 331.232 68.9891 331.905 68.6732L331.479 67.7682ZM329.714 68.2013L326.999 68.3433L327.051 69.3419L329.767 69.1999L329.714 68.2013ZM336.217 69.669L376.72 25.1368L375.98 24.464L335.477 68.9961L336.217 69.669ZM376.014 25.1702L383.629 32.1009L384.302 31.3613L376.687 24.4306L376.014 25.1702ZM383.596 31.3947L343.092 75.9269L343.832 76.5997L384.336 32.0675L383.596 31.3947ZM343.091 75.9285C342.679 76.3847 342.182 76.7547 341.627 77.0172L342.054 77.9213C342.729 77.6023 343.334 77.1525 343.834 76.5981L343.091 75.9285ZM341.627 77.0172C341.071 77.2797 340.47 77.4294 339.856 77.4577L339.902 78.4567C340.648 78.4223 341.379 78.2403 342.054 77.9213L341.627 77.0172ZM339.856 77.4577L336.43 77.6195L336.477 78.6184L339.903 78.4566L339.856 77.4577ZM336.43 77.6195C336.109 77.6347 335.794 77.5214 335.556 77.3046L334.883 78.0442C335.317 78.4395 335.891 78.6461 336.477 78.6184L336.43 77.6195ZM335.556 77.3046C335.317 77.0877 335.175 76.785 335.16 76.4631L334.161 76.5102C334.189 77.097 334.448 77.6488 334.883 78.0442L335.556 77.3046ZM335.16 76.4631L334.998 73.0367L333.999 73.0839L334.161 76.5102L335.16 76.4631ZM334.998 73.0361C334.968 72.4225 335.06 71.8091 335.269 71.2314L334.329 70.8913C334.075 71.5933 333.963 72.3388 333.999 73.0845L334.998 73.0361ZM335.269 71.2314C335.478 70.6537 335.8 70.1232 336.215 69.6706L335.478 68.9945C334.974 69.5445 334.583 70.1892 334.329 70.8913L335.269 71.2314ZM316.903 94.293C318.34 95.0122 319.547 96.1175 320.39 97.4849L321.242 96.9601C320.301 95.4345 318.954 94.2013 317.351 93.3989L316.903 94.293ZM320.615 96.7648L314.988 99.2386L315.391 100.154L321.017 97.6802L320.615 96.7648ZM324.369 95.6042C323.013 93.1941 320.926 91.2779 318.41 90.1327L317.995 91.0429C320.319 92.1002 322.246 93.8694 323.498 96.0945L324.369 95.6042ZM318.677 90.7453L324.712 72.5658L323.763 72.2507L317.728 90.4303L318.677 90.7453ZM324.261 72.9077L329.916 72.6406L329.869 71.6417L324.214 71.9088L324.261 72.9077ZM329.928 72.6399C330.37 72.6089 330.811 72.5457 331.244 72.4506L331.03 71.4738C330.644 71.5584 330.252 71.6148 329.858 71.6424L329.928 72.6399ZM330.641 71.9002C330.586 72.3424 330.563 72.7879 330.573 73.2334L331.573 73.2108C331.564 72.8143 331.584 72.4177 331.633 72.0241L330.641 71.9002ZM330.574 73.2457L330.735 76.672L331.734 76.6248L331.573 73.1985L330.574 73.2457ZM330.735 76.672C330.806 78.1675 331.468 79.5737 332.575 80.5813L333.248 79.8418C332.337 79.0127 331.792 77.8555 331.734 76.6248L330.735 76.672ZM332.575 80.5813C333.682 81.5889 335.144 82.1154 336.639 82.0448L336.592 81.0459C335.362 81.104 334.159 80.6709 333.248 79.8418L332.575 80.5813ZM336.639 82.0448L340.065 81.883L340.017 80.8841L336.592 81.0459L336.639 82.0448ZM340.077 81.8823C340.521 81.8503 340.962 81.7857 341.397 81.6891L341.18 80.7129C340.793 80.7989 340.401 80.8564 340.005 80.8848L340.077 81.8823ZM340.793 81.1402C340.739 81.5776 340.717 82.0183 340.728 82.4588L341.727 82.4352C341.718 82.0432 341.737 81.651 341.785 81.2618L340.793 81.1402ZM340.728 82.4706L340.996 88.1378L341.995 88.0906L341.727 82.4234L340.728 82.4706ZM341.294 87.6566L323.732 95.3917L324.135 96.3069L341.697 88.5718L341.294 87.6566ZM388.658 36.0113L344.411 84.6659L345.151 85.3387L389.398 36.6841L388.658 36.0113ZM345.281 84.9787L345.152 82.2651L344.154 82.3122L344.282 85.0259L345.281 84.9787ZM345.152 82.2638C345.122 81.6551 345.213 81.0465 345.419 80.473L344.478 80.1345C344.227 80.8323 344.117 81.5729 344.154 82.3135L345.152 82.2638ZM345.419 80.473C345.625 79.8996 345.943 79.3728 346.354 78.923L345.616 78.2484C345.116 78.7957 344.729 79.4367 344.478 80.1345L345.419 80.473ZM346.355 78.9221L386.872 34.3756L386.132 33.7028L345.615 78.2493L346.355 78.9221ZM386.165 34.4083L388.69 36.7168L389.365 35.9786L386.839 33.6701L386.165 34.4083ZM391.672 33.4411L387.962 30.0655L387.289 30.8051L390.998 34.1807L391.672 33.4411ZM388.001 30.105C388.013 30.1189 388.021 30.1301 388.024 30.1339C388.024 30.1352 388.026 30.1375 388.017 30.1233C388.005 30.103 387.968 30.0418 387.908 29.9808L387.197 30.6839C387.169 30.6557 387.155 30.6295 387.164 30.6443C387.166 30.6476 387.178 30.6674 387.19 30.686C387.204 30.7071 387.224 30.7353 387.251 30.7657L388.001 30.105ZM387.908 29.9808C387.824 29.8962 387.735 29.8562 387.705 29.8426C387.701 29.8408 387.698 29.8392 387.695 29.838C387.692 29.8367 387.691 29.8361 387.689 29.8354C387.687 29.8342 387.688 29.8347 387.69 29.836C387.696 29.8389 387.714 29.848 387.737 29.8641L387.149 30.6735C387.189 30.7026 387.226 30.722 387.251 30.734C387.263 30.74 387.273 30.7448 387.28 30.7478C387.283 30.7492 387.287 30.7508 387.288 30.7515C387.291 30.7525 387.292 30.753 387.292 30.7533C387.3 30.7569 387.248 30.7357 387.197 30.6839L387.908 29.9808ZM387.78 29.8991L377.811 20.8268L377.138 21.5663L387.106 30.6386L387.78 29.8991ZM377.85 20.8662C377.862 20.8801 377.869 20.8913 377.872 20.8952C377.873 20.8964 377.874 20.8987 377.866 20.8845C377.853 20.8642 377.817 20.803 377.756 20.742L377.045 21.4451C377.017 21.4169 377.003 21.3907 377.012 21.4055C377.014 21.4088 377.026 21.4286 377.038 21.4471C377.052 21.4683 377.072 21.4965 377.099 21.5269L377.85 20.8662ZM377.756 20.742C377.673 20.6574 377.584 20.6174 377.554 20.6038C377.55 20.602 377.546 20.6004 377.544 20.5992C377.541 20.5979 377.539 20.5973 377.538 20.5966C377.535 20.5954 377.536 20.5959 377.539 20.5972C377.545 20.6001 377.563 20.6092 377.585 20.6254L376.998 21.4347C377.038 21.4638 377.074 21.4832 377.099 21.4953C377.111 21.5012 377.122 21.506 377.128 21.509C377.132 21.5104 377.135 21.512 377.137 21.5127C377.139 21.5137 377.14 21.5142 377.141 21.5145C377.148 21.5181 377.096 21.4969 377.045 21.4451L377.756 20.742ZM377.628 20.6603L373.919 17.2847L373.246 18.0242L376.955 21.3998L377.628 20.6603ZM373.952 17.9909L376.527 15.1599L375.787 14.487L373.212 17.318L373.952 17.9909ZM375.821 15.1932L393.577 31.353L394.25 30.6134L376.494 14.4536L375.821 15.1932ZM393.544 30.6463L390.966 33.474L391.704 34.1478L394.283 31.3201L393.544 30.6463ZM391.163 5.96951L401.307 15.2018L401.981 14.4622L391.836 5.22993L391.163 5.96951ZM401.308 15.2019C401.759 15.6124 402.125 16.1079 402.385 16.6601L403.29 16.2342C402.974 15.5632 402.529 14.961 401.98 14.4621L401.308 15.2019ZM402.385 16.6601C402.645 17.2122 402.793 17.8102 402.822 18.4198L403.821 18.3726C403.786 17.6318 403.606 16.9052 403.29 16.2342L402.385 16.6601ZM402.822 18.4198C402.851 19.0294 402.759 19.6387 402.553 20.2129L403.494 20.5517C403.745 19.8539 403.856 19.1135 403.821 18.3726L402.822 18.4198ZM402.553 20.2129C402.346 20.7871 402.028 21.3149 401.618 21.7662L402.357 22.4393C402.856 21.8908 403.242 21.2494 403.494 20.5517L402.553 20.2129ZM401.617 21.7663L395.848 28.1101L396.587 28.7829L402.357 22.4392L401.617 21.7663ZM396.554 28.0767L378.798 11.917L378.124 12.6566L395.881 28.8163L396.554 28.0767ZM378.831 12.6232L384.601 6.27941L383.861 5.60656L378.091 11.9504L378.831 12.6232ZM384.601 6.27877C385.012 5.82612 385.507 5.45889 386.06 5.19811L385.633 4.29383C384.961 4.61078 384.359 5.05709 383.86 5.6072L384.601 6.27877ZM386.06 5.19811C386.612 4.93733 387.21 4.78812 387.82 4.75901L387.773 3.76015C387.031 3.79552 386.304 3.97688 385.633 4.29383L386.06 5.19811ZM387.82 4.75901C388.43 4.72991 389.04 4.8215 389.615 5.02852L389.954 4.0877C389.255 3.83609 388.514 3.72478 387.773 3.76015L387.82 4.75901ZM389.615 5.02852C390.19 5.23555 390.718 5.55395 391.169 5.96549L391.843 5.22646C391.294 4.7263 390.652 4.33932 389.954 4.0877L389.615 5.02852ZM391.262 5.1597L391.255 5.16345L391.744 6.036L391.75 6.03225L391.262 5.1597ZM315.664 99.8535L317.57 94.0986L316.621 93.7841L314.715 99.539L315.664 99.8535ZM317.57 94.0986L317.602 94.0032L316.653 93.6887L316.621 93.7841L317.57 94.0986Z" fill="#333333" mask="url(#path-1-inside-1_37_3693)"/>
<path d="M0.350588 168.479C-0.765539 171.599 0.858989 175.033 3.97907 176.149C7.09916 177.266 10.5333 175.641 11.6494 172.521L0.350588 168.479ZM6 170.5C11.6494 172.521 11.6487 172.523 11.6481 172.525C11.648 172.525 11.6475 172.526 11.6473 172.527C11.647 172.528 11.6469 172.528 11.6472 172.527C11.6478 172.525 11.6497 172.52 11.653 172.511C11.6595 172.493 11.6713 172.461 11.6885 172.415C11.7228 172.323 11.7785 172.175 11.8559 171.975C12.0106 171.575 12.2518 170.968 12.5818 170.183C13.2422 168.612 14.2553 166.336 15.6391 163.591C18.414 158.086 22.6399 150.772 28.4426 143.489C40.0932 128.866 57.5451 115 82 115L82 103C52.4549 103 31.9068 119.884 19.0574 136.011C12.6101 144.103 7.96102 152.164 4.92343 158.19C3.40092 161.21 2.27347 163.739 1.51976 165.532C1.14269 166.429 0.858516 167.143 0.664648 167.644C0.567695 167.894 0.493268 168.092 0.441046 168.232C0.414933 168.302 0.394366 168.358 0.379305 168.4C0.371774 168.42 0.365619 168.437 0.360835 168.451C0.358442 168.457 0.356393 168.463 0.354685 168.468C0.353832 168.47 0.352806 168.473 0.352381 168.474C0.351442 168.477 0.350588 168.479 6 170.5ZM82 115C105.842 115 118.258 129.916 133.442 147.652C148.316 165.026 165.538 184.5 198.5 184.5V172.5C171.462 172.5 157.434 157.224 142.558 139.848C127.992 122.835 112.158 103 82 103L82 115ZM198.5 184.5C230.731 184.5 259.136 165.922 278.992 148.23C289.016 139.298 297.095 130.383 302.669 123.704C305.46 120.36 307.632 117.565 309.115 115.593C309.857 114.607 310.427 113.826 310.817 113.284C311.012 113.014 311.162 112.802 311.265 112.655C311.317 112.582 311.357 112.524 311.386 112.483C311.4 112.462 311.412 112.446 311.42 112.434C311.425 112.428 311.428 112.423 311.431 112.419C311.432 112.417 311.434 112.414 311.434 112.413C311.436 112.411 311.437 112.41 306.5 109C301.563 105.59 301.564 105.589 301.564 105.588C301.564 105.588 301.565 105.588 301.565 105.588C301.565 105.588 301.564 105.589 301.562 105.592C301.559 105.596 301.553 105.605 301.544 105.618C301.526 105.644 301.496 105.686 301.456 105.744C301.374 105.859 301.247 106.038 301.076 106.277C300.733 106.753 300.213 107.465 299.526 108.379C298.15 110.208 296.103 112.843 293.456 116.015C288.155 122.367 280.484 130.827 271.008 139.27C251.864 156.328 226.269 172.5 198.5 172.5V184.5Z" fill="#333333"/>
</svg>
