<svg width="204" height="285" viewBox="0 0 204 285" fill="none" xmlns="http://www.w3.org/2000/svg">
<path d="M41.2573 2.41408L69.6837 32.2395C71.7242 34.3805 75.0188 34.7042 77.4423 33.0019L113.042 7.9961C116.599 5.49755 121.005 9.67553 118.72 13.381L96.9164 48.7508C95.235 51.4783 95.978 55.0456 98.6055 56.8601L131.526 79.5953C135.019 82.0079 132.835 87.5079 128.641 86.8588L85.8214 80.2318C83.0413 79.8015 80.3335 81.3725 79.3142 84.0073L63.6154 124.587C62.0778 128.561 56.2459 127.712 55.9135 123.466L52.7813 83.4474C52.5313 80.2534 49.8287 77.8231 46.6375 77.9227L5.25485 79.214C0.919452 79.3493 -0.478116 73.4259 3.45358 71.5795L42.8026 53.1C45.4814 51.842 46.8497 48.8128 46.0249 45.9664L34.5355 6.31409C33.3691 2.28863 38.3715 -0.613783 41.2573 2.41408Z" stroke="#333333" stroke-width="2"/>
<path d="M87.3249 84.6665L200.87 266.365C204.187 271.674 202.444 278.697 197.028 281.839C191.594 284.992 184.647 282.973 181.747 277.398L82.8516 87.2476C82.1717 85.9403 82.7176 84.3256 84.051 83.7003C85.2306 83.1471 86.6343 83.5613 87.3249 84.6665Z" fill="#FFFFF7" stroke="#333333" stroke-width="2"/>
</svg>
